%TF.GenerationSoftware,KiCad,Pcbnew,(5.1.6)-1*%
%TF.CreationDate,2020-08-29T18:26:14+02:00*%
%TF.ProjectId,ypvs,79707673-2e6b-4696-9361-645f70636258,rev?*%
%TF.SameCoordinates,Original*%
%TF.FileFunction,Copper,L1,Top*%
%TF.FilePolarity,Positive*%
%FSLAX46Y46*%
G04 Gerber Fmt 4.6, Leading zero omitted, Abs format (unit mm)*
G04 Created by KiCad (PCBNEW (5.1.6)-1) date 2020-08-29 18:26:14*
%MOMM*%
%LPD*%
G01*
G04 APERTURE LIST*
%TA.AperFunction,ComponentPad*%
%ADD10R,1.600000X1.600000*%
%TD*%
%TA.AperFunction,ComponentPad*%
%ADD11O,1.600000X1.600000*%
%TD*%
%TA.AperFunction,ComponentPad*%
%ADD12C,1.600000*%
%TD*%
%TA.AperFunction,ComponentPad*%
%ADD13R,2.000000X2.000000*%
%TD*%
%TA.AperFunction,ComponentPad*%
%ADD14C,2.000000*%
%TD*%
%TA.AperFunction,ComponentPad*%
%ADD15R,1.800000X1.800000*%
%TD*%
%TA.AperFunction,ComponentPad*%
%ADD16O,1.800000X1.800000*%
%TD*%
%TA.AperFunction,ComponentPad*%
%ADD17R,1.700000X1.700000*%
%TD*%
%TA.AperFunction,ComponentPad*%
%ADD18O,1.700000X1.700000*%
%TD*%
%TA.AperFunction,ComponentPad*%
%ADD19R,2.400000X1.600000*%
%TD*%
%TA.AperFunction,ComponentPad*%
%ADD20O,2.400000X1.600000*%
%TD*%
%TA.AperFunction,Conductor*%
%ADD21C,1.524000*%
%TD*%
%TA.AperFunction,Conductor*%
%ADD22C,0.254000*%
%TD*%
G04 APERTURE END LIST*
D10*
%TO.P,U3,1*%
%TO.N,Net-(R2-Pad1)*%
X71120000Y-98044000D03*
D11*
%TO.P,U3,4*%
%TO.N,RPM_Input*%
X66040000Y-105664000D03*
%TO.P,U3,2*%
%TO.N,GND*%
X68580000Y-98044000D03*
%TO.P,U3,5*%
X68580000Y-105664000D03*
%TO.P,U3,3*%
%TO.N,Net-(U3-Pad3)*%
X66040000Y-98044000D03*
%TO.P,U3,6*%
%TO.N,+3V3*%
X71120000Y-105664000D03*
%TD*%
D12*
%TO.P,C1,2*%
%TO.N,GND*%
X28956000Y-120936000D03*
D10*
%TO.P,C1,1*%
%TO.N,+12V*%
X28956000Y-122936000D03*
%TD*%
D12*
%TO.P,C2,2*%
%TO.N,GND*%
X34036000Y-120436000D03*
%TO.P,C2,1*%
%TO.N,+12V*%
X34036000Y-122936000D03*
%TD*%
%TO.P,C3,1*%
%TO.N,+3V3*%
X60452000Y-120904000D03*
%TO.P,C3,2*%
%TO.N,GND*%
X60452000Y-118404000D03*
%TD*%
D10*
%TO.P,C4,1*%
%TO.N,+3V3*%
X66040000Y-118364000D03*
D12*
%TO.P,C4,2*%
%TO.N,GND*%
X66040000Y-120364000D03*
%TD*%
%TO.P,C5,1*%
%TO.N,GND*%
X29464000Y-84328000D03*
%TO.P,C5,2*%
%TO.N,+6V*%
X31964000Y-84328000D03*
%TD*%
D13*
%TO.P,C6,1*%
%TO.N,+6V*%
X32004000Y-91948000D03*
D14*
%TO.P,C6,2*%
%TO.N,GND*%
X27004000Y-91948000D03*
%TD*%
D15*
%TO.P,D1,1*%
%TO.N,Net-(D1-Pad1)*%
X59436000Y-88900000D03*
D16*
%TO.P,D1,2*%
%TO.N,Net-(D1-Pad2)*%
X59436000Y-81280000D03*
%TD*%
%TO.P,D2,2*%
%TO.N,GND*%
X71628000Y-92964000D03*
D15*
%TO.P,D2,1*%
%TO.N,Net-(D2-Pad1)*%
X64008000Y-92964000D03*
%TD*%
D17*
%TO.P,J1,1*%
%TO.N,GND*%
X28448000Y-76000000D03*
D18*
%TO.P,J1,2*%
%TO.N,Net-(D3-Pad1)*%
X30988000Y-76000000D03*
%TO.P,J1,3*%
%TO.N,Servo_PWM*%
X33528000Y-76000000D03*
%TD*%
%TO.P,J2,2*%
%TO.N,GND*%
X18796000Y-100584000D03*
D17*
%TO.P,J2,1*%
%TO.N,+6V*%
X18796000Y-98044000D03*
%TD*%
%TO.P,J3,1*%
%TO.N,Net-(D1-Pad2)*%
X59715400Y-76000000D03*
%TD*%
%TO.P,J4,1*%
%TO.N,GND*%
X18796000Y-112268000D03*
D18*
%TO.P,J4,2*%
%TO.N,+12V*%
X18796000Y-114808000D03*
%TD*%
D11*
%TO.P,R1,2*%
%TO.N,Net-(D1-Pad1)*%
X64008000Y-81280000D03*
D12*
%TO.P,R1,1*%
%TO.N,Net-(D2-Pad1)*%
X64008000Y-88900000D03*
%TD*%
%TO.P,R2,1*%
%TO.N,Net-(R2-Pad1)*%
X59436000Y-100076000D03*
D11*
%TO.P,R2,2*%
%TO.N,Net-(D2-Pad1)*%
X59436000Y-92456000D03*
%TD*%
D19*
%TO.P,U1,1*%
%TO.N,Net-(U1-Pad1)*%
X39344600Y-74904600D03*
D20*
%TO.P,U1,21*%
%TO.N,Net-(U1-Pad21)*%
X54584600Y-123164600D03*
%TO.P,U1,2*%
%TO.N,Net-(U1-Pad2)*%
X39344600Y-77444600D03*
%TO.P,U1,22*%
%TO.N,Net-(U1-Pad22)*%
X54584600Y-120624600D03*
%TO.P,U1,3*%
%TO.N,Net-(U1-Pad3)*%
X39344600Y-79984600D03*
%TO.P,U1,23*%
%TO.N,Net-(U1-Pad23)*%
X54584600Y-118084600D03*
%TO.P,U1,4*%
%TO.N,Net-(U1-Pad4)*%
X39344600Y-82524600D03*
%TO.P,U1,24*%
%TO.N,Net-(U1-Pad24)*%
X54584600Y-115544600D03*
%TO.P,U1,5*%
%TO.N,Net-(U1-Pad5)*%
X39344600Y-85064600D03*
%TO.P,U1,25*%
%TO.N,RPM_Input*%
X54584600Y-113004600D03*
%TO.P,U1,6*%
%TO.N,Net-(J5-Pad2)*%
X39344600Y-87604600D03*
%TO.P,U1,26*%
%TO.N,Net-(U1-Pad26)*%
X54584600Y-110464600D03*
%TO.P,U1,7*%
%TO.N,Net-(J5-Pad1)*%
X39344600Y-90144600D03*
%TO.P,U1,27*%
%TO.N,Net-(U1-Pad27)*%
X54584600Y-107924600D03*
%TO.P,U1,8*%
%TO.N,Net-(U1-Pad8)*%
X39344600Y-92684600D03*
%TO.P,U1,28*%
%TO.N,Net-(U1-Pad28)*%
X54584600Y-105384600D03*
%TO.P,U1,9*%
%TO.N,Net-(U1-Pad9)*%
X39344600Y-95224600D03*
%TO.P,U1,29*%
%TO.N,Net-(U1-Pad29)*%
X54584600Y-102844600D03*
%TO.P,U1,10*%
%TO.N,Net-(U1-Pad10)*%
X39344600Y-97764600D03*
%TO.P,U1,30*%
%TO.N,Net-(U1-Pad30)*%
X54584600Y-100304600D03*
%TO.P,U1,11*%
%TO.N,Net-(U1-Pad11)*%
X39344600Y-100304600D03*
%TO.P,U1,31*%
%TO.N,Net-(U1-Pad31)*%
X54584600Y-97764600D03*
%TO.P,U1,12*%
%TO.N,Net-(U1-Pad12)*%
X39344600Y-102844600D03*
%TO.P,U1,32*%
%TO.N,Net-(U1-Pad32)*%
X54584600Y-95224600D03*
%TO.P,U1,13*%
%TO.N,Servo_PWM*%
X39344600Y-105384600D03*
%TO.P,U1,33*%
%TO.N,Net-(U1-Pad33)*%
X54584600Y-92684600D03*
%TO.P,U1,14*%
%TO.N,Net-(U1-Pad14)*%
X39344600Y-107924600D03*
%TO.P,U1,34*%
%TO.N,Net-(U1-Pad34)*%
X54584600Y-90144600D03*
%TO.P,U1,15*%
%TO.N,Net-(U1-Pad15)*%
X39344600Y-110464600D03*
%TO.P,U1,35*%
%TO.N,Net-(U1-Pad35)*%
X54584600Y-87604600D03*
%TO.P,U1,16*%
%TO.N,Net-(U1-Pad16)*%
X39344600Y-113004600D03*
%TO.P,U1,36*%
%TO.N,Net-(U1-Pad36)*%
X54584600Y-85064600D03*
%TO.P,U1,17*%
%TO.N,Net-(U1-Pad17)*%
X39344600Y-115544600D03*
%TO.P,U1,37*%
%TO.N,Net-(U1-Pad37)*%
X54584600Y-82524600D03*
%TO.P,U1,18*%
%TO.N,Net-(U1-Pad18)*%
X39344600Y-118084600D03*
%TO.P,U1,38*%
%TO.N,+3V3*%
X54584600Y-79984600D03*
%TO.P,U1,19*%
%TO.N,Net-(U1-Pad19)*%
X39344600Y-120624600D03*
%TO.P,U1,39*%
%TO.N,GND*%
X54584600Y-77444600D03*
%TO.P,U1,20*%
%TO.N,+3V3*%
X39344600Y-123164600D03*
%TO.P,U1,40*%
%TO.N,GND*%
X54584600Y-74904600D03*
%TD*%
D15*
%TO.P,D3,1*%
%TO.N,Net-(D3-Pad1)*%
X19304000Y-83820000D03*
D16*
%TO.P,D3,2*%
%TO.N,+6V*%
X19304000Y-91440000D03*
%TD*%
D17*
%TO.P,J5,1*%
%TO.N,Net-(J5-Pad1)*%
X32512000Y-115824000D03*
D18*
%TO.P,J5,2*%
%TO.N,Net-(J5-Pad2)*%
X29972000Y-115824000D03*
%TD*%
D21*
%TO.N,GND*%
X28448000Y-76000000D02*
X26870000Y-76000000D01*
X28448000Y-76000000D02*
X28448000Y-78232000D01*
X28448000Y-76000000D02*
X28448000Y-74168000D01*
X28448000Y-74168000D02*
X27940000Y-73660000D01*
D22*
%TO.N,Net-(J5-Pad1)*%
X32512000Y-115824000D02*
X33020000Y-115824000D01*
X33020000Y-115824000D02*
X36576000Y-112268000D01*
X36576000Y-112268000D02*
X36576000Y-91440000D01*
X37871400Y-90144600D02*
X39344600Y-90144600D01*
X36576000Y-91440000D02*
X37871400Y-90144600D01*
%TO.N,Net-(J5-Pad2)*%
X29972000Y-115824000D02*
X29972000Y-113792000D01*
X29972000Y-113792000D02*
X35052000Y-108712000D01*
X35052000Y-108712000D02*
X35052000Y-89916000D01*
X37363400Y-87604600D02*
X39344600Y-87604600D01*
X35052000Y-89916000D02*
X37363400Y-87604600D01*
%TD*%
%TO.N,GND*%
G36*
X67643247Y-73398814D02*
G01*
X67647106Y-73421536D01*
X67649371Y-73444473D01*
X67658665Y-73489592D01*
X67923975Y-74582980D01*
X67930959Y-74604945D01*
X67936394Y-74627342D01*
X67951877Y-74670730D01*
X68366775Y-75716554D01*
X68376749Y-75737335D01*
X68385247Y-75758756D01*
X68406617Y-75799566D01*
X68963029Y-76777469D01*
X68975796Y-76796657D01*
X68987194Y-76816689D01*
X69014036Y-76854128D01*
X69701130Y-77745077D01*
X69716444Y-77762302D01*
X69730519Y-77780553D01*
X69762311Y-77813892D01*
X70566713Y-78600544D01*
X70584283Y-78615477D01*
X70600754Y-78631584D01*
X70636861Y-78660162D01*
X70636875Y-78660174D01*
X70636882Y-78660179D01*
X71542931Y-79327221D01*
X71562406Y-79339562D01*
X71580961Y-79353222D01*
X71620710Y-79376507D01*
X72610783Y-79910963D01*
X72631786Y-79920473D01*
X72652060Y-79931417D01*
X72694663Y-79948943D01*
X73749482Y-80340406D01*
X73771602Y-80346900D01*
X73793205Y-80354917D01*
X73837832Y-80366343D01*
X74936867Y-80607194D01*
X74959673Y-80610546D01*
X74982184Y-80615479D01*
X75027967Y-80620583D01*
X75540000Y-80659630D01*
X75540001Y-118384990D01*
X74913911Y-118437570D01*
X74878064Y-118443152D01*
X74842074Y-118447603D01*
X74821797Y-118451913D01*
X74821793Y-118451914D01*
X74821790Y-118451915D01*
X73720285Y-118704203D01*
X73685591Y-118714777D01*
X73650577Y-118724258D01*
X73631106Y-118731383D01*
X72576134Y-119136360D01*
X72543247Y-119151731D01*
X72509949Y-119166037D01*
X72491684Y-119175830D01*
X72491676Y-119175834D01*
X72491670Y-119175838D01*
X71504291Y-119725417D01*
X71473910Y-119745260D01*
X71442946Y-119764124D01*
X71426236Y-119776398D01*
X70526139Y-120459623D01*
X70498868Y-120483539D01*
X70470861Y-120506586D01*
X70456047Y-120521092D01*
X69661196Y-121324326D01*
X69637563Y-121351851D01*
X69613087Y-121378609D01*
X69600465Y-121395058D01*
X68926720Y-122302273D01*
X68907196Y-122332862D01*
X68886739Y-122362795D01*
X68876566Y-122380849D01*
X68876561Y-122380857D01*
X68876561Y-122380858D01*
X68337366Y-123373954D01*
X68322344Y-123406992D01*
X68306312Y-123439504D01*
X68298786Y-123458806D01*
X68298779Y-123458821D01*
X68298775Y-123458834D01*
X67904892Y-124517983D01*
X67894680Y-124552791D01*
X67883383Y-124587255D01*
X67878653Y-124607424D01*
X67878648Y-124607441D01*
X67878646Y-124607455D01*
X67637927Y-125711535D01*
X67632723Y-125747430D01*
X67626393Y-125783147D01*
X67624550Y-125803799D01*
X67586718Y-126319043D01*
X16846200Y-126314658D01*
X16846200Y-121804495D01*
X20015000Y-121804495D01*
X20015000Y-122195505D01*
X20091282Y-122579003D01*
X20240915Y-122940250D01*
X20458149Y-123265364D01*
X20734636Y-123541851D01*
X21059750Y-123759085D01*
X21420997Y-123908718D01*
X21804495Y-123985000D01*
X22195505Y-123985000D01*
X22579003Y-123908718D01*
X22940250Y-123759085D01*
X23265364Y-123541851D01*
X23541851Y-123265364D01*
X23759085Y-122940250D01*
X23908718Y-122579003D01*
X23985000Y-122195505D01*
X23985000Y-121804495D01*
X23908718Y-121420997D01*
X23759085Y-121059750D01*
X23723513Y-121006512D01*
X27515783Y-121006512D01*
X27557213Y-121286130D01*
X27652397Y-121552292D01*
X27717616Y-121674309D01*
X27704815Y-121684815D01*
X27625463Y-121781506D01*
X27566498Y-121891820D01*
X27530188Y-122011518D01*
X27517928Y-122136000D01*
X27517928Y-123736000D01*
X27530188Y-123860482D01*
X27566498Y-123980180D01*
X27625463Y-124090494D01*
X27704815Y-124187185D01*
X27801506Y-124266537D01*
X27911820Y-124325502D01*
X28031518Y-124361812D01*
X28156000Y-124374072D01*
X29756000Y-124374072D01*
X29880482Y-124361812D01*
X30000180Y-124325502D01*
X30110494Y-124266537D01*
X30207185Y-124187185D01*
X30286537Y-124090494D01*
X30345502Y-123980180D01*
X30381812Y-123860482D01*
X30394072Y-123736000D01*
X30394072Y-122794665D01*
X32601000Y-122794665D01*
X32601000Y-123077335D01*
X32656147Y-123354574D01*
X32764320Y-123615727D01*
X32921363Y-123850759D01*
X33121241Y-124050637D01*
X33356273Y-124207680D01*
X33617426Y-124315853D01*
X33894665Y-124371000D01*
X34177335Y-124371000D01*
X34454574Y-124315853D01*
X34715727Y-124207680D01*
X34950759Y-124050637D01*
X35150637Y-123850759D01*
X35307680Y-123615727D01*
X35415853Y-123354574D01*
X35471000Y-123077335D01*
X35471000Y-122794665D01*
X35415853Y-122517426D01*
X35307680Y-122256273D01*
X35150637Y-122021241D01*
X34950759Y-121821363D01*
X34750131Y-121687308D01*
X34777514Y-121672671D01*
X34849097Y-121428702D01*
X34036000Y-120615605D01*
X33222903Y-121428702D01*
X33294486Y-121672671D01*
X33323341Y-121686324D01*
X33121241Y-121821363D01*
X32921363Y-122021241D01*
X32764320Y-122256273D01*
X32656147Y-122517426D01*
X32601000Y-122794665D01*
X30394072Y-122794665D01*
X30394072Y-122136000D01*
X30381812Y-122011518D01*
X30345502Y-121891820D01*
X30286537Y-121781506D01*
X30207185Y-121684815D01*
X30194242Y-121674193D01*
X30313571Y-121422004D01*
X30382300Y-121147816D01*
X30396217Y-120865488D01*
X30354787Y-120585870D01*
X30326408Y-120506512D01*
X32595783Y-120506512D01*
X32637213Y-120786130D01*
X32732397Y-121052292D01*
X32799329Y-121177514D01*
X33043298Y-121249097D01*
X33856395Y-120436000D01*
X34215605Y-120436000D01*
X35028702Y-121249097D01*
X35272671Y-121177514D01*
X35393571Y-120922004D01*
X35462300Y-120647816D01*
X35476217Y-120365488D01*
X35434787Y-120085870D01*
X35339603Y-119819708D01*
X35272671Y-119694486D01*
X35028702Y-119622903D01*
X34215605Y-120436000D01*
X33856395Y-120436000D01*
X33043298Y-119622903D01*
X32799329Y-119694486D01*
X32678429Y-119949996D01*
X32609700Y-120224184D01*
X32595783Y-120506512D01*
X30326408Y-120506512D01*
X30259603Y-120319708D01*
X30192671Y-120194486D01*
X29948702Y-120122903D01*
X29135605Y-120936000D01*
X29149748Y-120950143D01*
X28970143Y-121129748D01*
X28956000Y-121115605D01*
X28941858Y-121129748D01*
X28762253Y-120950143D01*
X28776395Y-120936000D01*
X27963298Y-120122903D01*
X27719329Y-120194486D01*
X27598429Y-120449996D01*
X27529700Y-120724184D01*
X27515783Y-121006512D01*
X23723513Y-121006512D01*
X23541851Y-120734636D01*
X23265364Y-120458149D01*
X22940250Y-120240915D01*
X22579003Y-120091282D01*
X22195505Y-120015000D01*
X21804495Y-120015000D01*
X21420997Y-120091282D01*
X21059750Y-120240915D01*
X20734636Y-120458149D01*
X20458149Y-120734636D01*
X20240915Y-121059750D01*
X20091282Y-121420997D01*
X20015000Y-121804495D01*
X16846200Y-121804495D01*
X16846200Y-119943298D01*
X28142903Y-119943298D01*
X28956000Y-120756395D01*
X29769097Y-119943298D01*
X29697514Y-119699329D01*
X29442004Y-119578429D01*
X29167816Y-119509700D01*
X28885488Y-119495783D01*
X28605870Y-119537213D01*
X28339708Y-119632397D01*
X28214486Y-119699329D01*
X28142903Y-119943298D01*
X16846200Y-119943298D01*
X16846200Y-119443298D01*
X33222903Y-119443298D01*
X34036000Y-120256395D01*
X34849097Y-119443298D01*
X34777514Y-119199329D01*
X34522004Y-119078429D01*
X34247816Y-119009700D01*
X33965488Y-118995783D01*
X33685870Y-119037213D01*
X33419708Y-119132397D01*
X33294486Y-119199329D01*
X33222903Y-119443298D01*
X16846200Y-119443298D01*
X16846200Y-113118000D01*
X17307928Y-113118000D01*
X17320188Y-113242482D01*
X17356498Y-113362180D01*
X17415463Y-113472494D01*
X17494815Y-113569185D01*
X17591506Y-113648537D01*
X17701820Y-113707502D01*
X17774380Y-113729513D01*
X17642525Y-113861368D01*
X17480010Y-114104589D01*
X17368068Y-114374842D01*
X17311000Y-114661740D01*
X17311000Y-114954260D01*
X17368068Y-115241158D01*
X17480010Y-115511411D01*
X17642525Y-115754632D01*
X17849368Y-115961475D01*
X18092589Y-116123990D01*
X18362842Y-116235932D01*
X18649740Y-116293000D01*
X18942260Y-116293000D01*
X19229158Y-116235932D01*
X19499411Y-116123990D01*
X19742632Y-115961475D01*
X19949475Y-115754632D01*
X20000852Y-115677740D01*
X28487000Y-115677740D01*
X28487000Y-115970260D01*
X28544068Y-116257158D01*
X28656010Y-116527411D01*
X28818525Y-116770632D01*
X29025368Y-116977475D01*
X29268589Y-117139990D01*
X29538842Y-117251932D01*
X29825740Y-117309000D01*
X30118260Y-117309000D01*
X30405158Y-117251932D01*
X30675411Y-117139990D01*
X30918632Y-116977475D01*
X31050487Y-116845620D01*
X31072498Y-116918180D01*
X31131463Y-117028494D01*
X31210815Y-117125185D01*
X31307506Y-117204537D01*
X31417820Y-117263502D01*
X31537518Y-117299812D01*
X31662000Y-117312072D01*
X33362000Y-117312072D01*
X33486482Y-117299812D01*
X33606180Y-117263502D01*
X33716494Y-117204537D01*
X33813185Y-117125185D01*
X33892537Y-117028494D01*
X33951502Y-116918180D01*
X33987812Y-116798482D01*
X34000072Y-116674000D01*
X34000072Y-115921558D01*
X37088353Y-112833278D01*
X37117422Y-112809422D01*
X37212645Y-112693392D01*
X37283402Y-112561015D01*
X37326974Y-112417378D01*
X37338000Y-112305426D01*
X37338000Y-112305424D01*
X37341686Y-112268001D01*
X37338000Y-112230578D01*
X37338000Y-91755630D01*
X37927426Y-91166205D01*
X38143499Y-91343532D01*
X38276458Y-91414600D01*
X38143499Y-91485668D01*
X37924992Y-91664992D01*
X37745668Y-91883499D01*
X37612418Y-92132792D01*
X37530364Y-92403291D01*
X37502657Y-92684600D01*
X37530364Y-92965909D01*
X37612418Y-93236408D01*
X37745668Y-93485701D01*
X37924992Y-93704208D01*
X38143499Y-93883532D01*
X38276458Y-93954600D01*
X38143499Y-94025668D01*
X37924992Y-94204992D01*
X37745668Y-94423499D01*
X37612418Y-94672792D01*
X37530364Y-94943291D01*
X37502657Y-95224600D01*
X37530364Y-95505909D01*
X37612418Y-95776408D01*
X37745668Y-96025701D01*
X37924992Y-96244208D01*
X38143499Y-96423532D01*
X38276458Y-96494600D01*
X38143499Y-96565668D01*
X37924992Y-96744992D01*
X37745668Y-96963499D01*
X37612418Y-97212792D01*
X37530364Y-97483291D01*
X37502657Y-97764600D01*
X37530364Y-98045909D01*
X37612418Y-98316408D01*
X37745668Y-98565701D01*
X37924992Y-98784208D01*
X38143499Y-98963532D01*
X38276458Y-99034600D01*
X38143499Y-99105668D01*
X37924992Y-99284992D01*
X37745668Y-99503499D01*
X37612418Y-99752792D01*
X37530364Y-100023291D01*
X37502657Y-100304600D01*
X37530364Y-100585909D01*
X37612418Y-100856408D01*
X37745668Y-101105701D01*
X37924992Y-101324208D01*
X38143499Y-101503532D01*
X38276458Y-101574600D01*
X38143499Y-101645668D01*
X37924992Y-101824992D01*
X37745668Y-102043499D01*
X37612418Y-102292792D01*
X37530364Y-102563291D01*
X37502657Y-102844600D01*
X37530364Y-103125909D01*
X37612418Y-103396408D01*
X37745668Y-103645701D01*
X37924992Y-103864208D01*
X38143499Y-104043532D01*
X38276458Y-104114600D01*
X38143499Y-104185668D01*
X37924992Y-104364992D01*
X37745668Y-104583499D01*
X37612418Y-104832792D01*
X37530364Y-105103291D01*
X37502657Y-105384600D01*
X37530364Y-105665909D01*
X37612418Y-105936408D01*
X37745668Y-106185701D01*
X37924992Y-106404208D01*
X38143499Y-106583532D01*
X38276458Y-106654600D01*
X38143499Y-106725668D01*
X37924992Y-106904992D01*
X37745668Y-107123499D01*
X37612418Y-107372792D01*
X37530364Y-107643291D01*
X37502657Y-107924600D01*
X37530364Y-108205909D01*
X37612418Y-108476408D01*
X37745668Y-108725701D01*
X37924992Y-108944208D01*
X38143499Y-109123532D01*
X38276458Y-109194600D01*
X38143499Y-109265668D01*
X37924992Y-109444992D01*
X37745668Y-109663499D01*
X37612418Y-109912792D01*
X37530364Y-110183291D01*
X37502657Y-110464600D01*
X37530364Y-110745909D01*
X37612418Y-111016408D01*
X37745668Y-111265701D01*
X37924992Y-111484208D01*
X38143499Y-111663532D01*
X38276458Y-111734600D01*
X38143499Y-111805668D01*
X37924992Y-111984992D01*
X37745668Y-112203499D01*
X37612418Y-112452792D01*
X37530364Y-112723291D01*
X37502657Y-113004600D01*
X37530364Y-113285909D01*
X37612418Y-113556408D01*
X37745668Y-113805701D01*
X37924992Y-114024208D01*
X38143499Y-114203532D01*
X38276458Y-114274600D01*
X38143499Y-114345668D01*
X37924992Y-114524992D01*
X37745668Y-114743499D01*
X37612418Y-114992792D01*
X37530364Y-115263291D01*
X37502657Y-115544600D01*
X37530364Y-115825909D01*
X37612418Y-116096408D01*
X37745668Y-116345701D01*
X37924992Y-116564208D01*
X38143499Y-116743532D01*
X38276458Y-116814600D01*
X38143499Y-116885668D01*
X37924992Y-117064992D01*
X37745668Y-117283499D01*
X37612418Y-117532792D01*
X37530364Y-117803291D01*
X37502657Y-118084600D01*
X37530364Y-118365909D01*
X37612418Y-118636408D01*
X37745668Y-118885701D01*
X37924992Y-119104208D01*
X38143499Y-119283532D01*
X38276458Y-119354600D01*
X38143499Y-119425668D01*
X37924992Y-119604992D01*
X37745668Y-119823499D01*
X37612418Y-120072792D01*
X37530364Y-120343291D01*
X37502657Y-120624600D01*
X37530364Y-120905909D01*
X37612418Y-121176408D01*
X37745668Y-121425701D01*
X37924992Y-121644208D01*
X38143499Y-121823532D01*
X38276458Y-121894600D01*
X38143499Y-121965668D01*
X37924992Y-122144992D01*
X37745668Y-122363499D01*
X37612418Y-122612792D01*
X37530364Y-122883291D01*
X37502657Y-123164600D01*
X37530364Y-123445909D01*
X37612418Y-123716408D01*
X37745668Y-123965701D01*
X37924992Y-124184208D01*
X38143499Y-124363532D01*
X38392792Y-124496782D01*
X38663291Y-124578836D01*
X38874108Y-124599600D01*
X39815092Y-124599600D01*
X40025909Y-124578836D01*
X40296408Y-124496782D01*
X40545701Y-124363532D01*
X40764208Y-124184208D01*
X40943532Y-123965701D01*
X41076782Y-123716408D01*
X41158836Y-123445909D01*
X41186543Y-123164600D01*
X41158836Y-122883291D01*
X41076782Y-122612792D01*
X40943532Y-122363499D01*
X40764208Y-122144992D01*
X40545701Y-121965668D01*
X40412742Y-121894600D01*
X40545701Y-121823532D01*
X40764208Y-121644208D01*
X40943532Y-121425701D01*
X41076782Y-121176408D01*
X41158836Y-120905909D01*
X41186543Y-120624600D01*
X41158836Y-120343291D01*
X41076782Y-120072792D01*
X40943532Y-119823499D01*
X40764208Y-119604992D01*
X40545701Y-119425668D01*
X40412742Y-119354600D01*
X40545701Y-119283532D01*
X40764208Y-119104208D01*
X40943532Y-118885701D01*
X41076782Y-118636408D01*
X41158836Y-118365909D01*
X41186543Y-118084600D01*
X41158836Y-117803291D01*
X41076782Y-117532792D01*
X40943532Y-117283499D01*
X40764208Y-117064992D01*
X40545701Y-116885668D01*
X40412742Y-116814600D01*
X40545701Y-116743532D01*
X40764208Y-116564208D01*
X40943532Y-116345701D01*
X41076782Y-116096408D01*
X41158836Y-115825909D01*
X41186543Y-115544600D01*
X41158836Y-115263291D01*
X41076782Y-114992792D01*
X40943532Y-114743499D01*
X40764208Y-114524992D01*
X40545701Y-114345668D01*
X40412742Y-114274600D01*
X40545701Y-114203532D01*
X40764208Y-114024208D01*
X40943532Y-113805701D01*
X41076782Y-113556408D01*
X41158836Y-113285909D01*
X41186543Y-113004600D01*
X41158836Y-112723291D01*
X41076782Y-112452792D01*
X40943532Y-112203499D01*
X40764208Y-111984992D01*
X40545701Y-111805668D01*
X40412742Y-111734600D01*
X40545701Y-111663532D01*
X40764208Y-111484208D01*
X40943532Y-111265701D01*
X41076782Y-111016408D01*
X41158836Y-110745909D01*
X41186543Y-110464600D01*
X41158836Y-110183291D01*
X41076782Y-109912792D01*
X40943532Y-109663499D01*
X40764208Y-109444992D01*
X40545701Y-109265668D01*
X40412742Y-109194600D01*
X40545701Y-109123532D01*
X40764208Y-108944208D01*
X40943532Y-108725701D01*
X41076782Y-108476408D01*
X41158836Y-108205909D01*
X41186543Y-107924600D01*
X41158836Y-107643291D01*
X41076782Y-107372792D01*
X40943532Y-107123499D01*
X40764208Y-106904992D01*
X40545701Y-106725668D01*
X40412742Y-106654600D01*
X40545701Y-106583532D01*
X40764208Y-106404208D01*
X40943532Y-106185701D01*
X41076782Y-105936408D01*
X41158836Y-105665909D01*
X41186543Y-105384600D01*
X41158836Y-105103291D01*
X41076782Y-104832792D01*
X40943532Y-104583499D01*
X40764208Y-104364992D01*
X40545701Y-104185668D01*
X40412742Y-104114600D01*
X40545701Y-104043532D01*
X40764208Y-103864208D01*
X40943532Y-103645701D01*
X41076782Y-103396408D01*
X41158836Y-103125909D01*
X41186543Y-102844600D01*
X41158836Y-102563291D01*
X41076782Y-102292792D01*
X40943532Y-102043499D01*
X40764208Y-101824992D01*
X40545701Y-101645668D01*
X40412742Y-101574600D01*
X40545701Y-101503532D01*
X40764208Y-101324208D01*
X40943532Y-101105701D01*
X41076782Y-100856408D01*
X41158836Y-100585909D01*
X41186543Y-100304600D01*
X41158836Y-100023291D01*
X41076782Y-99752792D01*
X40943532Y-99503499D01*
X40764208Y-99284992D01*
X40545701Y-99105668D01*
X40412742Y-99034600D01*
X40545701Y-98963532D01*
X40764208Y-98784208D01*
X40943532Y-98565701D01*
X41076782Y-98316408D01*
X41158836Y-98045909D01*
X41186543Y-97764600D01*
X41158836Y-97483291D01*
X41076782Y-97212792D01*
X40943532Y-96963499D01*
X40764208Y-96744992D01*
X40545701Y-96565668D01*
X40412742Y-96494600D01*
X40545701Y-96423532D01*
X40764208Y-96244208D01*
X40943532Y-96025701D01*
X41076782Y-95776408D01*
X41158836Y-95505909D01*
X41186543Y-95224600D01*
X41158836Y-94943291D01*
X41076782Y-94672792D01*
X40943532Y-94423499D01*
X40764208Y-94204992D01*
X40545701Y-94025668D01*
X40412742Y-93954600D01*
X40545701Y-93883532D01*
X40764208Y-93704208D01*
X40943532Y-93485701D01*
X41076782Y-93236408D01*
X41158836Y-92965909D01*
X41186543Y-92684600D01*
X41158836Y-92403291D01*
X41076782Y-92132792D01*
X40943532Y-91883499D01*
X40764208Y-91664992D01*
X40545701Y-91485668D01*
X40412742Y-91414600D01*
X40545701Y-91343532D01*
X40764208Y-91164208D01*
X40943532Y-90945701D01*
X41076782Y-90696408D01*
X41158836Y-90425909D01*
X41186543Y-90144600D01*
X41158836Y-89863291D01*
X41076782Y-89592792D01*
X40943532Y-89343499D01*
X40764208Y-89124992D01*
X40545701Y-88945668D01*
X40412742Y-88874600D01*
X40545701Y-88803532D01*
X40764208Y-88624208D01*
X40943532Y-88405701D01*
X41076782Y-88156408D01*
X41158836Y-87885909D01*
X41186543Y-87604600D01*
X41158836Y-87323291D01*
X41076782Y-87052792D01*
X40943532Y-86803499D01*
X40764208Y-86584992D01*
X40545701Y-86405668D01*
X40412742Y-86334600D01*
X40545701Y-86263532D01*
X40764208Y-86084208D01*
X40943532Y-85865701D01*
X41076782Y-85616408D01*
X41158836Y-85345909D01*
X41186543Y-85064600D01*
X41158836Y-84783291D01*
X41076782Y-84512792D01*
X40943532Y-84263499D01*
X40764208Y-84044992D01*
X40545701Y-83865668D01*
X40412742Y-83794600D01*
X40545701Y-83723532D01*
X40764208Y-83544208D01*
X40943532Y-83325701D01*
X41076782Y-83076408D01*
X41158836Y-82805909D01*
X41186543Y-82524600D01*
X41158836Y-82243291D01*
X41076782Y-81972792D01*
X40943532Y-81723499D01*
X40764208Y-81504992D01*
X40545701Y-81325668D01*
X40412742Y-81254600D01*
X40545701Y-81183532D01*
X40764208Y-81004208D01*
X40943532Y-80785701D01*
X41076782Y-80536408D01*
X41158836Y-80265909D01*
X41186543Y-79984600D01*
X52742657Y-79984600D01*
X52770364Y-80265909D01*
X52852418Y-80536408D01*
X52985668Y-80785701D01*
X53164992Y-81004208D01*
X53383499Y-81183532D01*
X53516458Y-81254600D01*
X53383499Y-81325668D01*
X53164992Y-81504992D01*
X52985668Y-81723499D01*
X52852418Y-81972792D01*
X52770364Y-82243291D01*
X52742657Y-82524600D01*
X52770364Y-82805909D01*
X52852418Y-83076408D01*
X52985668Y-83325701D01*
X53164992Y-83544208D01*
X53383499Y-83723532D01*
X53516458Y-83794600D01*
X53383499Y-83865668D01*
X53164992Y-84044992D01*
X52985668Y-84263499D01*
X52852418Y-84512792D01*
X52770364Y-84783291D01*
X52742657Y-85064600D01*
X52770364Y-85345909D01*
X52852418Y-85616408D01*
X52985668Y-85865701D01*
X53164992Y-86084208D01*
X53383499Y-86263532D01*
X53516458Y-86334600D01*
X53383499Y-86405668D01*
X53164992Y-86584992D01*
X52985668Y-86803499D01*
X52852418Y-87052792D01*
X52770364Y-87323291D01*
X52742657Y-87604600D01*
X52770364Y-87885909D01*
X52852418Y-88156408D01*
X52985668Y-88405701D01*
X53164992Y-88624208D01*
X53383499Y-88803532D01*
X53516458Y-88874600D01*
X53383499Y-88945668D01*
X53164992Y-89124992D01*
X52985668Y-89343499D01*
X52852418Y-89592792D01*
X52770364Y-89863291D01*
X52742657Y-90144600D01*
X52770364Y-90425909D01*
X52852418Y-90696408D01*
X52985668Y-90945701D01*
X53164992Y-91164208D01*
X53383499Y-91343532D01*
X53516458Y-91414600D01*
X53383499Y-91485668D01*
X53164992Y-91664992D01*
X52985668Y-91883499D01*
X52852418Y-92132792D01*
X52770364Y-92403291D01*
X52742657Y-92684600D01*
X52770364Y-92965909D01*
X52852418Y-93236408D01*
X52985668Y-93485701D01*
X53164992Y-93704208D01*
X53383499Y-93883532D01*
X53516458Y-93954600D01*
X53383499Y-94025668D01*
X53164992Y-94204992D01*
X52985668Y-94423499D01*
X52852418Y-94672792D01*
X52770364Y-94943291D01*
X52742657Y-95224600D01*
X52770364Y-95505909D01*
X52852418Y-95776408D01*
X52985668Y-96025701D01*
X53164992Y-96244208D01*
X53383499Y-96423532D01*
X53516458Y-96494600D01*
X53383499Y-96565668D01*
X53164992Y-96744992D01*
X52985668Y-96963499D01*
X52852418Y-97212792D01*
X52770364Y-97483291D01*
X52742657Y-97764600D01*
X52770364Y-98045909D01*
X52852418Y-98316408D01*
X52985668Y-98565701D01*
X53164992Y-98784208D01*
X53383499Y-98963532D01*
X53516458Y-99034600D01*
X53383499Y-99105668D01*
X53164992Y-99284992D01*
X52985668Y-99503499D01*
X52852418Y-99752792D01*
X52770364Y-100023291D01*
X52742657Y-100304600D01*
X52770364Y-100585909D01*
X52852418Y-100856408D01*
X52985668Y-101105701D01*
X53164992Y-101324208D01*
X53383499Y-101503532D01*
X53516458Y-101574600D01*
X53383499Y-101645668D01*
X53164992Y-101824992D01*
X52985668Y-102043499D01*
X52852418Y-102292792D01*
X52770364Y-102563291D01*
X52742657Y-102844600D01*
X52770364Y-103125909D01*
X52852418Y-103396408D01*
X52985668Y-103645701D01*
X53164992Y-103864208D01*
X53383499Y-104043532D01*
X53516458Y-104114600D01*
X53383499Y-104185668D01*
X53164992Y-104364992D01*
X52985668Y-104583499D01*
X52852418Y-104832792D01*
X52770364Y-105103291D01*
X52742657Y-105384600D01*
X52770364Y-105665909D01*
X52852418Y-105936408D01*
X52985668Y-106185701D01*
X53164992Y-106404208D01*
X53383499Y-106583532D01*
X53516458Y-106654600D01*
X53383499Y-106725668D01*
X53164992Y-106904992D01*
X52985668Y-107123499D01*
X52852418Y-107372792D01*
X52770364Y-107643291D01*
X52742657Y-107924600D01*
X52770364Y-108205909D01*
X52852418Y-108476408D01*
X52985668Y-108725701D01*
X53164992Y-108944208D01*
X53383499Y-109123532D01*
X53516458Y-109194600D01*
X53383499Y-109265668D01*
X53164992Y-109444992D01*
X52985668Y-109663499D01*
X52852418Y-109912792D01*
X52770364Y-110183291D01*
X52742657Y-110464600D01*
X52770364Y-110745909D01*
X52852418Y-111016408D01*
X52985668Y-111265701D01*
X53164992Y-111484208D01*
X53383499Y-111663532D01*
X53516458Y-111734600D01*
X53383499Y-111805668D01*
X53164992Y-111984992D01*
X52985668Y-112203499D01*
X52852418Y-112452792D01*
X52770364Y-112723291D01*
X52742657Y-113004600D01*
X52770364Y-113285909D01*
X52852418Y-113556408D01*
X52985668Y-113805701D01*
X53164992Y-114024208D01*
X53383499Y-114203532D01*
X53516458Y-114274600D01*
X53383499Y-114345668D01*
X53164992Y-114524992D01*
X52985668Y-114743499D01*
X52852418Y-114992792D01*
X52770364Y-115263291D01*
X52742657Y-115544600D01*
X52770364Y-115825909D01*
X52852418Y-116096408D01*
X52985668Y-116345701D01*
X53164992Y-116564208D01*
X53383499Y-116743532D01*
X53516458Y-116814600D01*
X53383499Y-116885668D01*
X53164992Y-117064992D01*
X52985668Y-117283499D01*
X52852418Y-117532792D01*
X52770364Y-117803291D01*
X52742657Y-118084600D01*
X52770364Y-118365909D01*
X52852418Y-118636408D01*
X52985668Y-118885701D01*
X53164992Y-119104208D01*
X53383499Y-119283532D01*
X53516458Y-119354600D01*
X53383499Y-119425668D01*
X53164992Y-119604992D01*
X52985668Y-119823499D01*
X52852418Y-120072792D01*
X52770364Y-120343291D01*
X52742657Y-120624600D01*
X52770364Y-120905909D01*
X52852418Y-121176408D01*
X52985668Y-121425701D01*
X53164992Y-121644208D01*
X53383499Y-121823532D01*
X53516458Y-121894600D01*
X53383499Y-121965668D01*
X53164992Y-122144992D01*
X52985668Y-122363499D01*
X52852418Y-122612792D01*
X52770364Y-122883291D01*
X52742657Y-123164600D01*
X52770364Y-123445909D01*
X52852418Y-123716408D01*
X52985668Y-123965701D01*
X53164992Y-124184208D01*
X53383499Y-124363532D01*
X53632792Y-124496782D01*
X53903291Y-124578836D01*
X54114108Y-124599600D01*
X55055092Y-124599600D01*
X55265909Y-124578836D01*
X55536408Y-124496782D01*
X55785701Y-124363532D01*
X56004208Y-124184208D01*
X56183532Y-123965701D01*
X56316782Y-123716408D01*
X56398836Y-123445909D01*
X56426543Y-123164600D01*
X56398836Y-122883291D01*
X56316782Y-122612792D01*
X56183532Y-122363499D01*
X56004208Y-122144992D01*
X55785701Y-121965668D01*
X55652742Y-121894600D01*
X55785701Y-121823532D01*
X56004208Y-121644208D01*
X56183532Y-121425701D01*
X56316782Y-121176408D01*
X56398836Y-120905909D01*
X56412944Y-120762665D01*
X59017000Y-120762665D01*
X59017000Y-121045335D01*
X59072147Y-121322574D01*
X59180320Y-121583727D01*
X59337363Y-121818759D01*
X59537241Y-122018637D01*
X59772273Y-122175680D01*
X60033426Y-122283853D01*
X60310665Y-122339000D01*
X60593335Y-122339000D01*
X60870574Y-122283853D01*
X61131727Y-122175680D01*
X61366759Y-122018637D01*
X61566637Y-121818759D01*
X61723680Y-121583727D01*
X61817716Y-121356702D01*
X65226903Y-121356702D01*
X65298486Y-121600671D01*
X65553996Y-121721571D01*
X65828184Y-121790300D01*
X66110512Y-121804217D01*
X66390130Y-121762787D01*
X66656292Y-121667603D01*
X66781514Y-121600671D01*
X66853097Y-121356702D01*
X66040000Y-120543605D01*
X65226903Y-121356702D01*
X61817716Y-121356702D01*
X61831853Y-121322574D01*
X61887000Y-121045335D01*
X61887000Y-120762665D01*
X61831853Y-120485426D01*
X61810764Y-120434512D01*
X64599783Y-120434512D01*
X64641213Y-120714130D01*
X64736397Y-120980292D01*
X64803329Y-121105514D01*
X65047298Y-121177097D01*
X65860395Y-120364000D01*
X65846253Y-120349858D01*
X66025858Y-120170253D01*
X66040000Y-120184395D01*
X66054143Y-120170253D01*
X66233748Y-120349858D01*
X66219605Y-120364000D01*
X67032702Y-121177097D01*
X67276671Y-121105514D01*
X67397571Y-120850004D01*
X67466300Y-120575816D01*
X67480217Y-120293488D01*
X67438787Y-120013870D01*
X67343603Y-119747708D01*
X67278384Y-119625691D01*
X67291185Y-119615185D01*
X67370537Y-119518494D01*
X67429502Y-119408180D01*
X67465812Y-119288482D01*
X67478072Y-119164000D01*
X67478072Y-117564000D01*
X67465812Y-117439518D01*
X67429502Y-117319820D01*
X67370537Y-117209506D01*
X67291185Y-117112815D01*
X67194494Y-117033463D01*
X67084180Y-116974498D01*
X66964482Y-116938188D01*
X66840000Y-116925928D01*
X65240000Y-116925928D01*
X65115518Y-116938188D01*
X64995820Y-116974498D01*
X64885506Y-117033463D01*
X64788815Y-117112815D01*
X64709463Y-117209506D01*
X64650498Y-117319820D01*
X64614188Y-117439518D01*
X64601928Y-117564000D01*
X64601928Y-119164000D01*
X64614188Y-119288482D01*
X64650498Y-119408180D01*
X64709463Y-119518494D01*
X64788815Y-119615185D01*
X64801758Y-119625807D01*
X64682429Y-119877996D01*
X64613700Y-120152184D01*
X64599783Y-120434512D01*
X61810764Y-120434512D01*
X61723680Y-120224273D01*
X61566637Y-119989241D01*
X61366759Y-119789363D01*
X61166131Y-119655308D01*
X61193514Y-119640671D01*
X61265097Y-119396702D01*
X60452000Y-118583605D01*
X59638903Y-119396702D01*
X59710486Y-119640671D01*
X59739341Y-119654324D01*
X59537241Y-119789363D01*
X59337363Y-119989241D01*
X59180320Y-120224273D01*
X59072147Y-120485426D01*
X59017000Y-120762665D01*
X56412944Y-120762665D01*
X56426543Y-120624600D01*
X56398836Y-120343291D01*
X56316782Y-120072792D01*
X56183532Y-119823499D01*
X56004208Y-119604992D01*
X55785701Y-119425668D01*
X55652742Y-119354600D01*
X55785701Y-119283532D01*
X56004208Y-119104208D01*
X56183532Y-118885701D01*
X56316782Y-118636408D01*
X56365892Y-118474512D01*
X59011783Y-118474512D01*
X59053213Y-118754130D01*
X59148397Y-119020292D01*
X59215329Y-119145514D01*
X59459298Y-119217097D01*
X60272395Y-118404000D01*
X60631605Y-118404000D01*
X61444702Y-119217097D01*
X61688671Y-119145514D01*
X61809571Y-118890004D01*
X61878300Y-118615816D01*
X61892217Y-118333488D01*
X61850787Y-118053870D01*
X61755603Y-117787708D01*
X61688671Y-117662486D01*
X61444702Y-117590903D01*
X60631605Y-118404000D01*
X60272395Y-118404000D01*
X59459298Y-117590903D01*
X59215329Y-117662486D01*
X59094429Y-117917996D01*
X59025700Y-118192184D01*
X59011783Y-118474512D01*
X56365892Y-118474512D01*
X56398836Y-118365909D01*
X56426543Y-118084600D01*
X56398836Y-117803291D01*
X56316782Y-117532792D01*
X56251843Y-117411298D01*
X59638903Y-117411298D01*
X60452000Y-118224395D01*
X61265097Y-117411298D01*
X61193514Y-117167329D01*
X60938004Y-117046429D01*
X60663816Y-116977700D01*
X60381488Y-116963783D01*
X60101870Y-117005213D01*
X59835708Y-117100397D01*
X59710486Y-117167329D01*
X59638903Y-117411298D01*
X56251843Y-117411298D01*
X56183532Y-117283499D01*
X56004208Y-117064992D01*
X55785701Y-116885668D01*
X55652742Y-116814600D01*
X55785701Y-116743532D01*
X56004208Y-116564208D01*
X56183532Y-116345701D01*
X56316782Y-116096408D01*
X56398836Y-115825909D01*
X56426543Y-115544600D01*
X56398836Y-115263291D01*
X56316782Y-114992792D01*
X56183532Y-114743499D01*
X56004208Y-114524992D01*
X55785701Y-114345668D01*
X55652742Y-114274600D01*
X55785701Y-114203532D01*
X56004208Y-114024208D01*
X56183532Y-113805701D01*
X56316782Y-113556408D01*
X56398836Y-113285909D01*
X56426543Y-113004600D01*
X56406835Y-112804495D01*
X69015000Y-112804495D01*
X69015000Y-113195505D01*
X69091282Y-113579003D01*
X69240915Y-113940250D01*
X69458149Y-114265364D01*
X69734636Y-114541851D01*
X70059750Y-114759085D01*
X70420997Y-114908718D01*
X70804495Y-114985000D01*
X71195505Y-114985000D01*
X71579003Y-114908718D01*
X71940250Y-114759085D01*
X72265364Y-114541851D01*
X72541851Y-114265364D01*
X72759085Y-113940250D01*
X72908718Y-113579003D01*
X72985000Y-113195505D01*
X72985000Y-112804495D01*
X72908718Y-112420997D01*
X72759085Y-112059750D01*
X72541851Y-111734636D01*
X72265364Y-111458149D01*
X71940250Y-111240915D01*
X71579003Y-111091282D01*
X71195505Y-111015000D01*
X70804495Y-111015000D01*
X70420997Y-111091282D01*
X70059750Y-111240915D01*
X69734636Y-111458149D01*
X69458149Y-111734636D01*
X69240915Y-112059750D01*
X69091282Y-112420997D01*
X69015000Y-112804495D01*
X56406835Y-112804495D01*
X56398836Y-112723291D01*
X56316782Y-112452792D01*
X56183532Y-112203499D01*
X56004208Y-111984992D01*
X55785701Y-111805668D01*
X55652742Y-111734600D01*
X55785701Y-111663532D01*
X56004208Y-111484208D01*
X56183532Y-111265701D01*
X56316782Y-111016408D01*
X56398836Y-110745909D01*
X56426543Y-110464600D01*
X56398836Y-110183291D01*
X56316782Y-109912792D01*
X56183532Y-109663499D01*
X56004208Y-109444992D01*
X55785701Y-109265668D01*
X55652742Y-109194600D01*
X55785701Y-109123532D01*
X56004208Y-108944208D01*
X56183532Y-108725701D01*
X56316782Y-108476408D01*
X56398836Y-108205909D01*
X56426543Y-107924600D01*
X56398836Y-107643291D01*
X56316782Y-107372792D01*
X56183532Y-107123499D01*
X56004208Y-106904992D01*
X55785701Y-106725668D01*
X55652742Y-106654600D01*
X55785701Y-106583532D01*
X56004208Y-106404208D01*
X56183532Y-106185701D01*
X56316782Y-105936408D01*
X56398836Y-105665909D01*
X56412944Y-105522665D01*
X64605000Y-105522665D01*
X64605000Y-105805335D01*
X64660147Y-106082574D01*
X64768320Y-106343727D01*
X64925363Y-106578759D01*
X65125241Y-106778637D01*
X65360273Y-106935680D01*
X65621426Y-107043853D01*
X65898665Y-107099000D01*
X66181335Y-107099000D01*
X66458574Y-107043853D01*
X66719727Y-106935680D01*
X66954759Y-106778637D01*
X67154637Y-106578759D01*
X67311680Y-106343727D01*
X67316067Y-106333135D01*
X67427615Y-106519131D01*
X67616586Y-106727519D01*
X67842580Y-106895037D01*
X68096913Y-107015246D01*
X68230961Y-107055904D01*
X68453000Y-106933915D01*
X68453000Y-105791000D01*
X68433000Y-105791000D01*
X68433000Y-105537000D01*
X68453000Y-105537000D01*
X68453000Y-104394085D01*
X68707000Y-104394085D01*
X68707000Y-105537000D01*
X68727000Y-105537000D01*
X68727000Y-105791000D01*
X68707000Y-105791000D01*
X68707000Y-106933915D01*
X68929039Y-107055904D01*
X69063087Y-107015246D01*
X69317420Y-106895037D01*
X69543414Y-106727519D01*
X69732385Y-106519131D01*
X69843933Y-106333135D01*
X69848320Y-106343727D01*
X70005363Y-106578759D01*
X70205241Y-106778637D01*
X70440273Y-106935680D01*
X70701426Y-107043853D01*
X70978665Y-107099000D01*
X71261335Y-107099000D01*
X71538574Y-107043853D01*
X71799727Y-106935680D01*
X72034759Y-106778637D01*
X72234637Y-106578759D01*
X72391680Y-106343727D01*
X72499853Y-106082574D01*
X72555000Y-105805335D01*
X72555000Y-105522665D01*
X72499853Y-105245426D01*
X72391680Y-104984273D01*
X72234637Y-104749241D01*
X72034759Y-104549363D01*
X71799727Y-104392320D01*
X71538574Y-104284147D01*
X71261335Y-104229000D01*
X70978665Y-104229000D01*
X70701426Y-104284147D01*
X70440273Y-104392320D01*
X70205241Y-104549363D01*
X70005363Y-104749241D01*
X69848320Y-104984273D01*
X69843933Y-104994865D01*
X69732385Y-104808869D01*
X69543414Y-104600481D01*
X69317420Y-104432963D01*
X69063087Y-104312754D01*
X68929039Y-104272096D01*
X68707000Y-104394085D01*
X68453000Y-104394085D01*
X68230961Y-104272096D01*
X68096913Y-104312754D01*
X67842580Y-104432963D01*
X67616586Y-104600481D01*
X67427615Y-104808869D01*
X67316067Y-104994865D01*
X67311680Y-104984273D01*
X67154637Y-104749241D01*
X66954759Y-104549363D01*
X66719727Y-104392320D01*
X66458574Y-104284147D01*
X66181335Y-104229000D01*
X65898665Y-104229000D01*
X65621426Y-104284147D01*
X65360273Y-104392320D01*
X65125241Y-104549363D01*
X64925363Y-104749241D01*
X64768320Y-104984273D01*
X64660147Y-105245426D01*
X64605000Y-105522665D01*
X56412944Y-105522665D01*
X56426543Y-105384600D01*
X56398836Y-105103291D01*
X56316782Y-104832792D01*
X56183532Y-104583499D01*
X56004208Y-104364992D01*
X55785701Y-104185668D01*
X55652742Y-104114600D01*
X55785701Y-104043532D01*
X56004208Y-103864208D01*
X56183532Y-103645701D01*
X56316782Y-103396408D01*
X56398836Y-103125909D01*
X56426543Y-102844600D01*
X56398836Y-102563291D01*
X56316782Y-102292792D01*
X56183532Y-102043499D01*
X56004208Y-101824992D01*
X55785701Y-101645668D01*
X55652742Y-101574600D01*
X55785701Y-101503532D01*
X56004208Y-101324208D01*
X56183532Y-101105701D01*
X56316782Y-100856408D01*
X56398836Y-100585909D01*
X56426543Y-100304600D01*
X56398836Y-100023291D01*
X56371952Y-99934665D01*
X58001000Y-99934665D01*
X58001000Y-100217335D01*
X58056147Y-100494574D01*
X58164320Y-100755727D01*
X58321363Y-100990759D01*
X58521241Y-101190637D01*
X58756273Y-101347680D01*
X59017426Y-101455853D01*
X59294665Y-101511000D01*
X59577335Y-101511000D01*
X59854574Y-101455853D01*
X60115727Y-101347680D01*
X60350759Y-101190637D01*
X60550637Y-100990759D01*
X60707680Y-100755727D01*
X60815853Y-100494574D01*
X60871000Y-100217335D01*
X60871000Y-99934665D01*
X60815853Y-99657426D01*
X60707680Y-99396273D01*
X60550637Y-99161241D01*
X60350759Y-98961363D01*
X60115727Y-98804320D01*
X59854574Y-98696147D01*
X59577335Y-98641000D01*
X59294665Y-98641000D01*
X59017426Y-98696147D01*
X58756273Y-98804320D01*
X58521241Y-98961363D01*
X58321363Y-99161241D01*
X58164320Y-99396273D01*
X58056147Y-99657426D01*
X58001000Y-99934665D01*
X56371952Y-99934665D01*
X56316782Y-99752792D01*
X56183532Y-99503499D01*
X56004208Y-99284992D01*
X55785701Y-99105668D01*
X55652742Y-99034600D01*
X55785701Y-98963532D01*
X56004208Y-98784208D01*
X56183532Y-98565701D01*
X56316782Y-98316408D01*
X56398836Y-98045909D01*
X56412944Y-97902665D01*
X64605000Y-97902665D01*
X64605000Y-98185335D01*
X64660147Y-98462574D01*
X64768320Y-98723727D01*
X64925363Y-98958759D01*
X65125241Y-99158637D01*
X65360273Y-99315680D01*
X65621426Y-99423853D01*
X65898665Y-99479000D01*
X66181335Y-99479000D01*
X66458574Y-99423853D01*
X66719727Y-99315680D01*
X66954759Y-99158637D01*
X67154637Y-98958759D01*
X67311680Y-98723727D01*
X67316067Y-98713135D01*
X67427615Y-98899131D01*
X67616586Y-99107519D01*
X67842580Y-99275037D01*
X68096913Y-99395246D01*
X68230961Y-99435904D01*
X68453000Y-99313915D01*
X68453000Y-98171000D01*
X68433000Y-98171000D01*
X68433000Y-97917000D01*
X68453000Y-97917000D01*
X68453000Y-96774085D01*
X68707000Y-96774085D01*
X68707000Y-97917000D01*
X68727000Y-97917000D01*
X68727000Y-98171000D01*
X68707000Y-98171000D01*
X68707000Y-99313915D01*
X68929039Y-99435904D01*
X69063087Y-99395246D01*
X69317420Y-99275037D01*
X69543414Y-99107519D01*
X69691769Y-98943920D01*
X69694188Y-98968482D01*
X69730498Y-99088180D01*
X69789463Y-99198494D01*
X69868815Y-99295185D01*
X69965506Y-99374537D01*
X70075820Y-99433502D01*
X70195518Y-99469812D01*
X70320000Y-99482072D01*
X71920000Y-99482072D01*
X72044482Y-99469812D01*
X72164180Y-99433502D01*
X72274494Y-99374537D01*
X72371185Y-99295185D01*
X72450537Y-99198494D01*
X72509502Y-99088180D01*
X72545812Y-98968482D01*
X72558072Y-98844000D01*
X72558072Y-97244000D01*
X72545812Y-97119518D01*
X72509502Y-96999820D01*
X72450537Y-96889506D01*
X72371185Y-96792815D01*
X72274494Y-96713463D01*
X72164180Y-96654498D01*
X72044482Y-96618188D01*
X71920000Y-96605928D01*
X70320000Y-96605928D01*
X70195518Y-96618188D01*
X70075820Y-96654498D01*
X69965506Y-96713463D01*
X69868815Y-96792815D01*
X69789463Y-96889506D01*
X69730498Y-96999820D01*
X69694188Y-97119518D01*
X69691769Y-97144080D01*
X69543414Y-96980481D01*
X69317420Y-96812963D01*
X69063087Y-96692754D01*
X68929039Y-96652096D01*
X68707000Y-96774085D01*
X68453000Y-96774085D01*
X68230961Y-96652096D01*
X68096913Y-96692754D01*
X67842580Y-96812963D01*
X67616586Y-96980481D01*
X67427615Y-97188869D01*
X67316067Y-97374865D01*
X67311680Y-97364273D01*
X67154637Y-97129241D01*
X66954759Y-96929363D01*
X66719727Y-96772320D01*
X66458574Y-96664147D01*
X66181335Y-96609000D01*
X65898665Y-96609000D01*
X65621426Y-96664147D01*
X65360273Y-96772320D01*
X65125241Y-96929363D01*
X64925363Y-97129241D01*
X64768320Y-97364273D01*
X64660147Y-97625426D01*
X64605000Y-97902665D01*
X56412944Y-97902665D01*
X56426543Y-97764600D01*
X56398836Y-97483291D01*
X56316782Y-97212792D01*
X56183532Y-96963499D01*
X56004208Y-96744992D01*
X55785701Y-96565668D01*
X55652742Y-96494600D01*
X55785701Y-96423532D01*
X56004208Y-96244208D01*
X56183532Y-96025701D01*
X56316782Y-95776408D01*
X56398836Y-95505909D01*
X56426543Y-95224600D01*
X56398836Y-94943291D01*
X56316782Y-94672792D01*
X56183532Y-94423499D01*
X56004208Y-94204992D01*
X55785701Y-94025668D01*
X55652742Y-93954600D01*
X55785701Y-93883532D01*
X56004208Y-93704208D01*
X56183532Y-93485701D01*
X56316782Y-93236408D01*
X56398836Y-92965909D01*
X56426543Y-92684600D01*
X56398836Y-92403291D01*
X56371952Y-92314665D01*
X58001000Y-92314665D01*
X58001000Y-92597335D01*
X58056147Y-92874574D01*
X58164320Y-93135727D01*
X58321363Y-93370759D01*
X58521241Y-93570637D01*
X58756273Y-93727680D01*
X59017426Y-93835853D01*
X59294665Y-93891000D01*
X59577335Y-93891000D01*
X59854574Y-93835853D01*
X60115727Y-93727680D01*
X60350759Y-93570637D01*
X60550637Y-93370759D01*
X60707680Y-93135727D01*
X60815853Y-92874574D01*
X60871000Y-92597335D01*
X60871000Y-92314665D01*
X60821139Y-92064000D01*
X62469928Y-92064000D01*
X62469928Y-93864000D01*
X62482188Y-93988482D01*
X62518498Y-94108180D01*
X62577463Y-94218494D01*
X62656815Y-94315185D01*
X62753506Y-94394537D01*
X62863820Y-94453502D01*
X62983518Y-94489812D01*
X63108000Y-94502072D01*
X64908000Y-94502072D01*
X65032482Y-94489812D01*
X65152180Y-94453502D01*
X65262494Y-94394537D01*
X65359185Y-94315185D01*
X65438537Y-94218494D01*
X65497502Y-94108180D01*
X65533812Y-93988482D01*
X65546072Y-93864000D01*
X65546072Y-93328740D01*
X70136964Y-93328740D01*
X70185606Y-93489107D01*
X70315764Y-93760414D01*
X70496351Y-94001116D01*
X70720427Y-94201962D01*
X70979380Y-94355234D01*
X71263259Y-94455041D01*
X71501000Y-94334992D01*
X71501000Y-93091000D01*
X71755000Y-93091000D01*
X71755000Y-94334992D01*
X71992741Y-94455041D01*
X72276620Y-94355234D01*
X72535573Y-94201962D01*
X72759649Y-94001116D01*
X72940236Y-93760414D01*
X73070394Y-93489107D01*
X73119036Y-93328740D01*
X72998378Y-93091000D01*
X71755000Y-93091000D01*
X71501000Y-93091000D01*
X70257622Y-93091000D01*
X70136964Y-93328740D01*
X65546072Y-93328740D01*
X65546072Y-92599260D01*
X70136964Y-92599260D01*
X70257622Y-92837000D01*
X71501000Y-92837000D01*
X71501000Y-91593008D01*
X71755000Y-91593008D01*
X71755000Y-92837000D01*
X72998378Y-92837000D01*
X73119036Y-92599260D01*
X73070394Y-92438893D01*
X72940236Y-92167586D01*
X72759649Y-91926884D01*
X72535573Y-91726038D01*
X72276620Y-91572766D01*
X71992741Y-91472959D01*
X71755000Y-91593008D01*
X71501000Y-91593008D01*
X71263259Y-91472959D01*
X70979380Y-91572766D01*
X70720427Y-91726038D01*
X70496351Y-91926884D01*
X70315764Y-92167586D01*
X70185606Y-92438893D01*
X70136964Y-92599260D01*
X65546072Y-92599260D01*
X65546072Y-92064000D01*
X65533812Y-91939518D01*
X65497502Y-91819820D01*
X65438537Y-91709506D01*
X65359185Y-91612815D01*
X65262494Y-91533463D01*
X65152180Y-91474498D01*
X65032482Y-91438188D01*
X64908000Y-91425928D01*
X63108000Y-91425928D01*
X62983518Y-91438188D01*
X62863820Y-91474498D01*
X62753506Y-91533463D01*
X62656815Y-91612815D01*
X62577463Y-91709506D01*
X62518498Y-91819820D01*
X62482188Y-91939518D01*
X62469928Y-92064000D01*
X60821139Y-92064000D01*
X60815853Y-92037426D01*
X60707680Y-91776273D01*
X60550637Y-91541241D01*
X60350759Y-91341363D01*
X60115727Y-91184320D01*
X59854574Y-91076147D01*
X59577335Y-91021000D01*
X59294665Y-91021000D01*
X59017426Y-91076147D01*
X58756273Y-91184320D01*
X58521241Y-91341363D01*
X58321363Y-91541241D01*
X58164320Y-91776273D01*
X58056147Y-92037426D01*
X58001000Y-92314665D01*
X56371952Y-92314665D01*
X56316782Y-92132792D01*
X56183532Y-91883499D01*
X56004208Y-91664992D01*
X55785701Y-91485668D01*
X55652742Y-91414600D01*
X55785701Y-91343532D01*
X56004208Y-91164208D01*
X56183532Y-90945701D01*
X56316782Y-90696408D01*
X56398836Y-90425909D01*
X56426543Y-90144600D01*
X56398836Y-89863291D01*
X56316782Y-89592792D01*
X56183532Y-89343499D01*
X56004208Y-89124992D01*
X55785701Y-88945668D01*
X55652742Y-88874600D01*
X55785701Y-88803532D01*
X56004208Y-88624208D01*
X56183532Y-88405701D01*
X56316782Y-88156408D01*
X56364227Y-88000000D01*
X57897928Y-88000000D01*
X57897928Y-89800000D01*
X57910188Y-89924482D01*
X57946498Y-90044180D01*
X58005463Y-90154494D01*
X58084815Y-90251185D01*
X58181506Y-90330537D01*
X58291820Y-90389502D01*
X58411518Y-90425812D01*
X58536000Y-90438072D01*
X60336000Y-90438072D01*
X60460482Y-90425812D01*
X60580180Y-90389502D01*
X60690494Y-90330537D01*
X60787185Y-90251185D01*
X60866537Y-90154494D01*
X60925502Y-90044180D01*
X60961812Y-89924482D01*
X60974072Y-89800000D01*
X60974072Y-88758665D01*
X62573000Y-88758665D01*
X62573000Y-89041335D01*
X62628147Y-89318574D01*
X62736320Y-89579727D01*
X62893363Y-89814759D01*
X63093241Y-90014637D01*
X63328273Y-90171680D01*
X63589426Y-90279853D01*
X63866665Y-90335000D01*
X64149335Y-90335000D01*
X64426574Y-90279853D01*
X64687727Y-90171680D01*
X64922759Y-90014637D01*
X65122637Y-89814759D01*
X65279680Y-89579727D01*
X65387853Y-89318574D01*
X65443000Y-89041335D01*
X65443000Y-88758665D01*
X65387853Y-88481426D01*
X65279680Y-88220273D01*
X65122637Y-87985241D01*
X64922759Y-87785363D01*
X64687727Y-87628320D01*
X64426574Y-87520147D01*
X64149335Y-87465000D01*
X63866665Y-87465000D01*
X63589426Y-87520147D01*
X63328273Y-87628320D01*
X63093241Y-87785363D01*
X62893363Y-87985241D01*
X62736320Y-88220273D01*
X62628147Y-88481426D01*
X62573000Y-88758665D01*
X60974072Y-88758665D01*
X60974072Y-88000000D01*
X60961812Y-87875518D01*
X60925502Y-87755820D01*
X60866537Y-87645506D01*
X60787185Y-87548815D01*
X60690494Y-87469463D01*
X60580180Y-87410498D01*
X60460482Y-87374188D01*
X60336000Y-87361928D01*
X58536000Y-87361928D01*
X58411518Y-87374188D01*
X58291820Y-87410498D01*
X58181506Y-87469463D01*
X58084815Y-87548815D01*
X58005463Y-87645506D01*
X57946498Y-87755820D01*
X57910188Y-87875518D01*
X57897928Y-88000000D01*
X56364227Y-88000000D01*
X56398836Y-87885909D01*
X56426543Y-87604600D01*
X56398836Y-87323291D01*
X56316782Y-87052792D01*
X56183532Y-86803499D01*
X56004208Y-86584992D01*
X55785701Y-86405668D01*
X55652742Y-86334600D01*
X55785701Y-86263532D01*
X56004208Y-86084208D01*
X56183532Y-85865701D01*
X56316782Y-85616408D01*
X56398836Y-85345909D01*
X56426543Y-85064600D01*
X56400925Y-84804495D01*
X69015000Y-84804495D01*
X69015000Y-85195505D01*
X69091282Y-85579003D01*
X69240915Y-85940250D01*
X69458149Y-86265364D01*
X69734636Y-86541851D01*
X70059750Y-86759085D01*
X70420997Y-86908718D01*
X70804495Y-86985000D01*
X71195505Y-86985000D01*
X71579003Y-86908718D01*
X71940250Y-86759085D01*
X72265364Y-86541851D01*
X72541851Y-86265364D01*
X72759085Y-85940250D01*
X72908718Y-85579003D01*
X72985000Y-85195505D01*
X72985000Y-84804495D01*
X72908718Y-84420997D01*
X72759085Y-84059750D01*
X72541851Y-83734636D01*
X72265364Y-83458149D01*
X71940250Y-83240915D01*
X71579003Y-83091282D01*
X71195505Y-83015000D01*
X70804495Y-83015000D01*
X70420997Y-83091282D01*
X70059750Y-83240915D01*
X69734636Y-83458149D01*
X69458149Y-83734636D01*
X69240915Y-84059750D01*
X69091282Y-84420997D01*
X69015000Y-84804495D01*
X56400925Y-84804495D01*
X56398836Y-84783291D01*
X56316782Y-84512792D01*
X56183532Y-84263499D01*
X56004208Y-84044992D01*
X55785701Y-83865668D01*
X55652742Y-83794600D01*
X55785701Y-83723532D01*
X56004208Y-83544208D01*
X56183532Y-83325701D01*
X56316782Y-83076408D01*
X56398836Y-82805909D01*
X56426543Y-82524600D01*
X56398836Y-82243291D01*
X56316782Y-81972792D01*
X56183532Y-81723499D01*
X56004208Y-81504992D01*
X55785701Y-81325668D01*
X55652742Y-81254600D01*
X55785701Y-81183532D01*
X55852372Y-81128816D01*
X57901000Y-81128816D01*
X57901000Y-81431184D01*
X57959989Y-81727743D01*
X58075701Y-82007095D01*
X58243688Y-82258505D01*
X58457495Y-82472312D01*
X58708905Y-82640299D01*
X58988257Y-82756011D01*
X59284816Y-82815000D01*
X59587184Y-82815000D01*
X59883743Y-82756011D01*
X60163095Y-82640299D01*
X60414505Y-82472312D01*
X60628312Y-82258505D01*
X60796299Y-82007095D01*
X60912011Y-81727743D01*
X60971000Y-81431184D01*
X60971000Y-81138665D01*
X62573000Y-81138665D01*
X62573000Y-81421335D01*
X62628147Y-81698574D01*
X62736320Y-81959727D01*
X62893363Y-82194759D01*
X63093241Y-82394637D01*
X63328273Y-82551680D01*
X63589426Y-82659853D01*
X63866665Y-82715000D01*
X64149335Y-82715000D01*
X64426574Y-82659853D01*
X64687727Y-82551680D01*
X64922759Y-82394637D01*
X65122637Y-82194759D01*
X65279680Y-81959727D01*
X65387853Y-81698574D01*
X65443000Y-81421335D01*
X65443000Y-81138665D01*
X65387853Y-80861426D01*
X65279680Y-80600273D01*
X65122637Y-80365241D01*
X64922759Y-80165363D01*
X64687727Y-80008320D01*
X64426574Y-79900147D01*
X64149335Y-79845000D01*
X63866665Y-79845000D01*
X63589426Y-79900147D01*
X63328273Y-80008320D01*
X63093241Y-80165363D01*
X62893363Y-80365241D01*
X62736320Y-80600273D01*
X62628147Y-80861426D01*
X62573000Y-81138665D01*
X60971000Y-81138665D01*
X60971000Y-81128816D01*
X60912011Y-80832257D01*
X60796299Y-80552905D01*
X60628312Y-80301495D01*
X60414505Y-80087688D01*
X60163095Y-79919701D01*
X59883743Y-79803989D01*
X59587184Y-79745000D01*
X59284816Y-79745000D01*
X58988257Y-79803989D01*
X58708905Y-79919701D01*
X58457495Y-80087688D01*
X58243688Y-80301495D01*
X58075701Y-80552905D01*
X57959989Y-80832257D01*
X57901000Y-81128816D01*
X55852372Y-81128816D01*
X56004208Y-81004208D01*
X56183532Y-80785701D01*
X56316782Y-80536408D01*
X56398836Y-80265909D01*
X56426543Y-79984600D01*
X56398836Y-79703291D01*
X56316782Y-79432792D01*
X56183532Y-79183499D01*
X56004208Y-78964992D01*
X55785701Y-78785668D01*
X55657859Y-78717335D01*
X55887439Y-78567201D01*
X56089100Y-78369495D01*
X56248315Y-78136246D01*
X56358967Y-77876418D01*
X56376504Y-77793639D01*
X56254515Y-77571600D01*
X54711600Y-77571600D01*
X54711600Y-77591600D01*
X54457600Y-77591600D01*
X54457600Y-77571600D01*
X52914685Y-77571600D01*
X52792696Y-77793639D01*
X52810233Y-77876418D01*
X52920885Y-78136246D01*
X53080100Y-78369495D01*
X53281761Y-78567201D01*
X53511341Y-78717335D01*
X53383499Y-78785668D01*
X53164992Y-78964992D01*
X52985668Y-79183499D01*
X52852418Y-79432792D01*
X52770364Y-79703291D01*
X52742657Y-79984600D01*
X41186543Y-79984600D01*
X41158836Y-79703291D01*
X41076782Y-79432792D01*
X40943532Y-79183499D01*
X40764208Y-78964992D01*
X40545701Y-78785668D01*
X40412742Y-78714600D01*
X40545701Y-78643532D01*
X40764208Y-78464208D01*
X40943532Y-78245701D01*
X41076782Y-77996408D01*
X41158836Y-77725909D01*
X41186543Y-77444600D01*
X41158836Y-77163291D01*
X41076782Y-76892792D01*
X40943532Y-76643499D01*
X40764208Y-76424992D01*
X40651118Y-76332181D01*
X40669082Y-76330412D01*
X40788780Y-76294102D01*
X40899094Y-76235137D01*
X40995785Y-76155785D01*
X41075137Y-76059094D01*
X41134102Y-75948780D01*
X41170412Y-75829082D01*
X41182672Y-75704600D01*
X41182672Y-75253639D01*
X52792696Y-75253639D01*
X52810233Y-75336418D01*
X52920885Y-75596246D01*
X53080100Y-75829495D01*
X53281761Y-76027201D01*
X53507159Y-76174600D01*
X53281761Y-76321999D01*
X53080100Y-76519705D01*
X52920885Y-76752954D01*
X52810233Y-77012782D01*
X52792696Y-77095561D01*
X52914685Y-77317600D01*
X54457600Y-77317600D01*
X54457600Y-75031600D01*
X54711600Y-75031600D01*
X54711600Y-77317600D01*
X56254515Y-77317600D01*
X56376504Y-77095561D01*
X56358967Y-77012782D01*
X56248315Y-76752954D01*
X56089100Y-76519705D01*
X55887439Y-76321999D01*
X55662041Y-76174600D01*
X55887439Y-76027201D01*
X56089100Y-75829495D01*
X56248315Y-75596246D01*
X56358967Y-75336418D01*
X56376504Y-75253639D01*
X56319565Y-75150000D01*
X58227328Y-75150000D01*
X58227328Y-76850000D01*
X58239588Y-76974482D01*
X58275898Y-77094180D01*
X58334863Y-77204494D01*
X58414215Y-77301185D01*
X58510906Y-77380537D01*
X58621220Y-77439502D01*
X58740918Y-77475812D01*
X58865400Y-77488072D01*
X60565400Y-77488072D01*
X60689882Y-77475812D01*
X60809580Y-77439502D01*
X60919894Y-77380537D01*
X61016585Y-77301185D01*
X61095937Y-77204494D01*
X61154902Y-77094180D01*
X61191212Y-76974482D01*
X61203472Y-76850000D01*
X61203472Y-75150000D01*
X61191212Y-75025518D01*
X61154902Y-74905820D01*
X61095937Y-74795506D01*
X61016585Y-74698815D01*
X60919894Y-74619463D01*
X60809580Y-74560498D01*
X60689882Y-74524188D01*
X60565400Y-74511928D01*
X58865400Y-74511928D01*
X58740918Y-74524188D01*
X58621220Y-74560498D01*
X58510906Y-74619463D01*
X58414215Y-74698815D01*
X58334863Y-74795506D01*
X58275898Y-74905820D01*
X58239588Y-75025518D01*
X58227328Y-75150000D01*
X56319565Y-75150000D01*
X56254515Y-75031600D01*
X54711600Y-75031600D01*
X54457600Y-75031600D01*
X52914685Y-75031600D01*
X52792696Y-75253639D01*
X41182672Y-75253639D01*
X41182672Y-74555561D01*
X52792696Y-74555561D01*
X52914685Y-74777600D01*
X54457600Y-74777600D01*
X54457600Y-73469600D01*
X54711600Y-73469600D01*
X54711600Y-74777600D01*
X56254515Y-74777600D01*
X56376504Y-74555561D01*
X56358967Y-74472782D01*
X56248315Y-74212954D01*
X56089100Y-73979705D01*
X55887439Y-73781999D01*
X55651083Y-73627434D01*
X55389114Y-73521950D01*
X55111600Y-73469600D01*
X54711600Y-73469600D01*
X54457600Y-73469600D01*
X54057600Y-73469600D01*
X53780086Y-73521950D01*
X53518117Y-73627434D01*
X53281761Y-73781999D01*
X53080100Y-73979705D01*
X52920885Y-74212954D01*
X52810233Y-74472782D01*
X52792696Y-74555561D01*
X41182672Y-74555561D01*
X41182672Y-74104600D01*
X41170412Y-73980118D01*
X41134102Y-73860420D01*
X41075137Y-73750106D01*
X40995785Y-73653415D01*
X40899094Y-73574063D01*
X40788780Y-73515098D01*
X40669082Y-73478788D01*
X40544600Y-73466528D01*
X38144600Y-73466528D01*
X38020118Y-73478788D01*
X37900420Y-73515098D01*
X37790106Y-73574063D01*
X37693415Y-73653415D01*
X37614063Y-73750106D01*
X37555098Y-73860420D01*
X37518788Y-73980118D01*
X37506528Y-74104600D01*
X37506528Y-75704600D01*
X37518788Y-75829082D01*
X37555098Y-75948780D01*
X37614063Y-76059094D01*
X37693415Y-76155785D01*
X37790106Y-76235137D01*
X37900420Y-76294102D01*
X38020118Y-76330412D01*
X38038082Y-76332181D01*
X37924992Y-76424992D01*
X37745668Y-76643499D01*
X37612418Y-76892792D01*
X37530364Y-77163291D01*
X37502657Y-77444600D01*
X37530364Y-77725909D01*
X37612418Y-77996408D01*
X37745668Y-78245701D01*
X37924992Y-78464208D01*
X38143499Y-78643532D01*
X38276458Y-78714600D01*
X38143499Y-78785668D01*
X37924992Y-78964992D01*
X37745668Y-79183499D01*
X37612418Y-79432792D01*
X37530364Y-79703291D01*
X37502657Y-79984600D01*
X37530364Y-80265909D01*
X37612418Y-80536408D01*
X37745668Y-80785701D01*
X37924992Y-81004208D01*
X38143499Y-81183532D01*
X38276458Y-81254600D01*
X38143499Y-81325668D01*
X37924992Y-81504992D01*
X37745668Y-81723499D01*
X37612418Y-81972792D01*
X37530364Y-82243291D01*
X37502657Y-82524600D01*
X37530364Y-82805909D01*
X37612418Y-83076408D01*
X37745668Y-83325701D01*
X37924992Y-83544208D01*
X38143499Y-83723532D01*
X38276458Y-83794600D01*
X38143499Y-83865668D01*
X37924992Y-84044992D01*
X37745668Y-84263499D01*
X37612418Y-84512792D01*
X37530364Y-84783291D01*
X37502657Y-85064600D01*
X37530364Y-85345909D01*
X37612418Y-85616408D01*
X37745668Y-85865701D01*
X37924992Y-86084208D01*
X38143499Y-86263532D01*
X38276458Y-86334600D01*
X38143499Y-86405668D01*
X37924992Y-86584992D01*
X37745668Y-86803499D01*
X37724768Y-86842600D01*
X37400822Y-86842600D01*
X37363399Y-86838914D01*
X37325976Y-86842600D01*
X37325974Y-86842600D01*
X37214022Y-86853626D01*
X37070385Y-86897198D01*
X36938008Y-86967955D01*
X36821978Y-87063178D01*
X36798121Y-87092248D01*
X34539649Y-89350721D01*
X34510579Y-89374578D01*
X34486722Y-89403648D01*
X34486721Y-89403649D01*
X34415355Y-89490608D01*
X34344599Y-89622985D01*
X34301027Y-89766622D01*
X34286314Y-89916000D01*
X34290001Y-89953433D01*
X34290000Y-108396369D01*
X29459649Y-113226721D01*
X29430579Y-113250578D01*
X29406722Y-113279648D01*
X29406721Y-113279649D01*
X29335355Y-113366608D01*
X29264599Y-113498985D01*
X29221027Y-113642622D01*
X29206314Y-113792000D01*
X29210001Y-113829433D01*
X29210001Y-114547157D01*
X29025368Y-114670525D01*
X28818525Y-114877368D01*
X28656010Y-115120589D01*
X28544068Y-115390842D01*
X28487000Y-115677740D01*
X20000852Y-115677740D01*
X20111990Y-115511411D01*
X20223932Y-115241158D01*
X20281000Y-114954260D01*
X20281000Y-114661740D01*
X20223932Y-114374842D01*
X20111990Y-114104589D01*
X19949475Y-113861368D01*
X19817620Y-113729513D01*
X19890180Y-113707502D01*
X20000494Y-113648537D01*
X20097185Y-113569185D01*
X20176537Y-113472494D01*
X20235502Y-113362180D01*
X20271812Y-113242482D01*
X20284072Y-113118000D01*
X20281000Y-112553750D01*
X20122250Y-112395000D01*
X18923000Y-112395000D01*
X18923000Y-112415000D01*
X18669000Y-112415000D01*
X18669000Y-112395000D01*
X17469750Y-112395000D01*
X17311000Y-112553750D01*
X17307928Y-113118000D01*
X16846200Y-113118000D01*
X16846200Y-111418000D01*
X17307928Y-111418000D01*
X17311000Y-111982250D01*
X17469750Y-112141000D01*
X18669000Y-112141000D01*
X18669000Y-110941750D01*
X18923000Y-110941750D01*
X18923000Y-112141000D01*
X20122250Y-112141000D01*
X20281000Y-111982250D01*
X20284072Y-111418000D01*
X20271812Y-111293518D01*
X20235502Y-111173820D01*
X20176537Y-111063506D01*
X20097185Y-110966815D01*
X20000494Y-110887463D01*
X19890180Y-110828498D01*
X19770482Y-110792188D01*
X19646000Y-110779928D01*
X19081750Y-110783000D01*
X18923000Y-110941750D01*
X18669000Y-110941750D01*
X18510250Y-110783000D01*
X17946000Y-110779928D01*
X17821518Y-110792188D01*
X17701820Y-110828498D01*
X17591506Y-110887463D01*
X17494815Y-110966815D01*
X17415463Y-111063506D01*
X17356498Y-111173820D01*
X17320188Y-111293518D01*
X17307928Y-111418000D01*
X16846200Y-111418000D01*
X16846200Y-100940890D01*
X17354524Y-100940890D01*
X17399175Y-101088099D01*
X17524359Y-101350920D01*
X17698412Y-101584269D01*
X17914645Y-101779178D01*
X18164748Y-101928157D01*
X18439109Y-102025481D01*
X18669000Y-101904814D01*
X18669000Y-100711000D01*
X18923000Y-100711000D01*
X18923000Y-101904814D01*
X19152891Y-102025481D01*
X19427252Y-101928157D01*
X19677355Y-101779178D01*
X19893588Y-101584269D01*
X20067641Y-101350920D01*
X20192825Y-101088099D01*
X20237476Y-100940890D01*
X20116155Y-100711000D01*
X18923000Y-100711000D01*
X18669000Y-100711000D01*
X17475845Y-100711000D01*
X17354524Y-100940890D01*
X16846200Y-100940890D01*
X16846200Y-97194000D01*
X17307928Y-97194000D01*
X17307928Y-98894000D01*
X17320188Y-99018482D01*
X17356498Y-99138180D01*
X17415463Y-99248494D01*
X17494815Y-99345185D01*
X17591506Y-99424537D01*
X17701820Y-99483502D01*
X17782466Y-99507966D01*
X17698412Y-99583731D01*
X17524359Y-99817080D01*
X17399175Y-100079901D01*
X17354524Y-100227110D01*
X17475845Y-100457000D01*
X18669000Y-100457000D01*
X18669000Y-100437000D01*
X18923000Y-100437000D01*
X18923000Y-100457000D01*
X20116155Y-100457000D01*
X20237476Y-100227110D01*
X20192825Y-100079901D01*
X20067641Y-99817080D01*
X19893588Y-99583731D01*
X19809534Y-99507966D01*
X19890180Y-99483502D01*
X20000494Y-99424537D01*
X20097185Y-99345185D01*
X20176537Y-99248494D01*
X20235502Y-99138180D01*
X20271812Y-99018482D01*
X20284072Y-98894000D01*
X20284072Y-97194000D01*
X20271812Y-97069518D01*
X20235502Y-96949820D01*
X20176537Y-96839506D01*
X20097185Y-96742815D01*
X20000494Y-96663463D01*
X19890180Y-96604498D01*
X19770482Y-96568188D01*
X19646000Y-96555928D01*
X17946000Y-96555928D01*
X17821518Y-96568188D01*
X17701820Y-96604498D01*
X17591506Y-96663463D01*
X17494815Y-96742815D01*
X17415463Y-96839506D01*
X17356498Y-96949820D01*
X17320188Y-97069518D01*
X17307928Y-97194000D01*
X16846200Y-97194000D01*
X16846200Y-93083413D01*
X26048192Y-93083413D01*
X26143956Y-93347814D01*
X26433571Y-93488704D01*
X26745108Y-93570384D01*
X27066595Y-93589718D01*
X27385675Y-93545961D01*
X27690088Y-93440795D01*
X27864044Y-93347814D01*
X27959808Y-93083413D01*
X27004000Y-92127605D01*
X26048192Y-93083413D01*
X16846200Y-93083413D01*
X16846200Y-91288816D01*
X17769000Y-91288816D01*
X17769000Y-91591184D01*
X17827989Y-91887743D01*
X17943701Y-92167095D01*
X18111688Y-92418505D01*
X18325495Y-92632312D01*
X18576905Y-92800299D01*
X18856257Y-92916011D01*
X19152816Y-92975000D01*
X19455184Y-92975000D01*
X19751743Y-92916011D01*
X20031095Y-92800299D01*
X20282505Y-92632312D01*
X20496312Y-92418505D01*
X20664299Y-92167095D01*
X20729123Y-92010595D01*
X25362282Y-92010595D01*
X25406039Y-92329675D01*
X25511205Y-92634088D01*
X25604186Y-92808044D01*
X25868587Y-92903808D01*
X26824395Y-91948000D01*
X27183605Y-91948000D01*
X28139413Y-92903808D01*
X28403814Y-92808044D01*
X28544704Y-92518429D01*
X28626384Y-92206892D01*
X28645718Y-91885405D01*
X28601961Y-91566325D01*
X28496795Y-91261912D01*
X28403814Y-91087956D01*
X28139413Y-90992192D01*
X27183605Y-91948000D01*
X26824395Y-91948000D01*
X25868587Y-90992192D01*
X25604186Y-91087956D01*
X25463296Y-91377571D01*
X25381616Y-91689108D01*
X25362282Y-92010595D01*
X20729123Y-92010595D01*
X20780011Y-91887743D01*
X20839000Y-91591184D01*
X20839000Y-91288816D01*
X20780011Y-90992257D01*
X20705589Y-90812587D01*
X26048192Y-90812587D01*
X27004000Y-91768395D01*
X27824395Y-90948000D01*
X30365928Y-90948000D01*
X30365928Y-92948000D01*
X30378188Y-93072482D01*
X30414498Y-93192180D01*
X30473463Y-93302494D01*
X30552815Y-93399185D01*
X30649506Y-93478537D01*
X30759820Y-93537502D01*
X30879518Y-93573812D01*
X31004000Y-93586072D01*
X33004000Y-93586072D01*
X33128482Y-93573812D01*
X33248180Y-93537502D01*
X33358494Y-93478537D01*
X33455185Y-93399185D01*
X33534537Y-93302494D01*
X33593502Y-93192180D01*
X33629812Y-93072482D01*
X33642072Y-92948000D01*
X33642072Y-90948000D01*
X33629812Y-90823518D01*
X33593502Y-90703820D01*
X33534537Y-90593506D01*
X33455185Y-90496815D01*
X33358494Y-90417463D01*
X33248180Y-90358498D01*
X33128482Y-90322188D01*
X33004000Y-90309928D01*
X31004000Y-90309928D01*
X30879518Y-90322188D01*
X30759820Y-90358498D01*
X30649506Y-90417463D01*
X30552815Y-90496815D01*
X30473463Y-90593506D01*
X30414498Y-90703820D01*
X30378188Y-90823518D01*
X30365928Y-90948000D01*
X27824395Y-90948000D01*
X27959808Y-90812587D01*
X27864044Y-90548186D01*
X27574429Y-90407296D01*
X27262892Y-90325616D01*
X26941405Y-90306282D01*
X26622325Y-90350039D01*
X26317912Y-90455205D01*
X26143956Y-90548186D01*
X26048192Y-90812587D01*
X20705589Y-90812587D01*
X20664299Y-90712905D01*
X20496312Y-90461495D01*
X20282505Y-90247688D01*
X20031095Y-90079701D01*
X19751743Y-89963989D01*
X19455184Y-89905000D01*
X19152816Y-89905000D01*
X18856257Y-89963989D01*
X18576905Y-90079701D01*
X18325495Y-90247688D01*
X18111688Y-90461495D01*
X17943701Y-90712905D01*
X17827989Y-90992257D01*
X17769000Y-91288816D01*
X16846200Y-91288816D01*
X16846200Y-82920000D01*
X17765928Y-82920000D01*
X17765928Y-84720000D01*
X17778188Y-84844482D01*
X17814498Y-84964180D01*
X17873463Y-85074494D01*
X17952815Y-85171185D01*
X18049506Y-85250537D01*
X18159820Y-85309502D01*
X18279518Y-85345812D01*
X18404000Y-85358072D01*
X20204000Y-85358072D01*
X20328482Y-85345812D01*
X20411258Y-85320702D01*
X28650903Y-85320702D01*
X28722486Y-85564671D01*
X28977996Y-85685571D01*
X29252184Y-85754300D01*
X29534512Y-85768217D01*
X29814130Y-85726787D01*
X30080292Y-85631603D01*
X30205514Y-85564671D01*
X30277097Y-85320702D01*
X29464000Y-84507605D01*
X28650903Y-85320702D01*
X20411258Y-85320702D01*
X20448180Y-85309502D01*
X20558494Y-85250537D01*
X20655185Y-85171185D01*
X20734537Y-85074494D01*
X20793502Y-84964180D01*
X20829812Y-84844482D01*
X20842072Y-84720000D01*
X20842072Y-84398512D01*
X28023783Y-84398512D01*
X28065213Y-84678130D01*
X28160397Y-84944292D01*
X28227329Y-85069514D01*
X28471298Y-85141097D01*
X29284395Y-84328000D01*
X29643605Y-84328000D01*
X30456702Y-85141097D01*
X30700671Y-85069514D01*
X30714324Y-85040659D01*
X30849363Y-85242759D01*
X31049241Y-85442637D01*
X31284273Y-85599680D01*
X31545426Y-85707853D01*
X31822665Y-85763000D01*
X32105335Y-85763000D01*
X32382574Y-85707853D01*
X32643727Y-85599680D01*
X32878759Y-85442637D01*
X33078637Y-85242759D01*
X33235680Y-85007727D01*
X33343853Y-84746574D01*
X33399000Y-84469335D01*
X33399000Y-84186665D01*
X33343853Y-83909426D01*
X33235680Y-83648273D01*
X33078637Y-83413241D01*
X32878759Y-83213363D01*
X32643727Y-83056320D01*
X32382574Y-82948147D01*
X32105335Y-82893000D01*
X31822665Y-82893000D01*
X31545426Y-82948147D01*
X31284273Y-83056320D01*
X31049241Y-83213363D01*
X30849363Y-83413241D01*
X30715308Y-83613869D01*
X30700671Y-83586486D01*
X30456702Y-83514903D01*
X29643605Y-84328000D01*
X29284395Y-84328000D01*
X28471298Y-83514903D01*
X28227329Y-83586486D01*
X28106429Y-83841996D01*
X28037700Y-84116184D01*
X28023783Y-84398512D01*
X20842072Y-84398512D01*
X20842072Y-83335298D01*
X28650903Y-83335298D01*
X29464000Y-84148395D01*
X30277097Y-83335298D01*
X30205514Y-83091329D01*
X29950004Y-82970429D01*
X29675816Y-82901700D01*
X29393488Y-82887783D01*
X29113870Y-82929213D01*
X28847708Y-83024397D01*
X28722486Y-83091329D01*
X28650903Y-83335298D01*
X20842072Y-83335298D01*
X20842072Y-82920000D01*
X20829812Y-82795518D01*
X20793502Y-82675820D01*
X20734537Y-82565506D01*
X20655185Y-82468815D01*
X20558494Y-82389463D01*
X20448180Y-82330498D01*
X20328482Y-82294188D01*
X20204000Y-82281928D01*
X18404000Y-82281928D01*
X18279518Y-82294188D01*
X18159820Y-82330498D01*
X18049506Y-82389463D01*
X17952815Y-82468815D01*
X17873463Y-82565506D01*
X17814498Y-82675820D01*
X17778188Y-82795518D01*
X17765928Y-82920000D01*
X16846200Y-82920000D01*
X16846200Y-76804495D01*
X20015000Y-76804495D01*
X20015000Y-77195505D01*
X20091282Y-77579003D01*
X20240915Y-77940250D01*
X20458149Y-78265364D01*
X20734636Y-78541851D01*
X21059750Y-78759085D01*
X21420997Y-78908718D01*
X21804495Y-78985000D01*
X22195505Y-78985000D01*
X22579003Y-78908718D01*
X22940250Y-78759085D01*
X23265364Y-78541851D01*
X23541851Y-78265364D01*
X23759085Y-77940250D01*
X23908718Y-77579003D01*
X23985000Y-77195505D01*
X23985000Y-76850000D01*
X26959928Y-76850000D01*
X26972188Y-76974482D01*
X27008498Y-77094180D01*
X27067463Y-77204494D01*
X27146815Y-77301185D01*
X27243506Y-77380537D01*
X27353820Y-77439502D01*
X27473518Y-77475812D01*
X27598000Y-77488072D01*
X28162250Y-77485000D01*
X28321000Y-77326250D01*
X28321000Y-76127000D01*
X27121750Y-76127000D01*
X26963000Y-76285750D01*
X26959928Y-76850000D01*
X23985000Y-76850000D01*
X23985000Y-76804495D01*
X23908718Y-76420997D01*
X23759085Y-76059750D01*
X23541851Y-75734636D01*
X23265364Y-75458149D01*
X22940250Y-75240915D01*
X22720762Y-75150000D01*
X26959928Y-75150000D01*
X26963000Y-75714250D01*
X27121750Y-75873000D01*
X28321000Y-75873000D01*
X28321000Y-74673750D01*
X28575000Y-74673750D01*
X28575000Y-75873000D01*
X28595000Y-75873000D01*
X28595000Y-76127000D01*
X28575000Y-76127000D01*
X28575000Y-77326250D01*
X28733750Y-77485000D01*
X29298000Y-77488072D01*
X29422482Y-77475812D01*
X29542180Y-77439502D01*
X29652494Y-77380537D01*
X29749185Y-77301185D01*
X29828537Y-77204494D01*
X29887502Y-77094180D01*
X29909513Y-77021620D01*
X30041368Y-77153475D01*
X30284589Y-77315990D01*
X30554842Y-77427932D01*
X30841740Y-77485000D01*
X31134260Y-77485000D01*
X31421158Y-77427932D01*
X31691411Y-77315990D01*
X31934632Y-77153475D01*
X32141475Y-76946632D01*
X32258000Y-76772240D01*
X32374525Y-76946632D01*
X32581368Y-77153475D01*
X32824589Y-77315990D01*
X33094842Y-77427932D01*
X33381740Y-77485000D01*
X33674260Y-77485000D01*
X33961158Y-77427932D01*
X34231411Y-77315990D01*
X34474632Y-77153475D01*
X34681475Y-76946632D01*
X34843990Y-76703411D01*
X34955932Y-76433158D01*
X35013000Y-76146260D01*
X35013000Y-75853740D01*
X34955932Y-75566842D01*
X34843990Y-75296589D01*
X34681475Y-75053368D01*
X34474632Y-74846525D01*
X34231411Y-74684010D01*
X33961158Y-74572068D01*
X33674260Y-74515000D01*
X33381740Y-74515000D01*
X33094842Y-74572068D01*
X32824589Y-74684010D01*
X32581368Y-74846525D01*
X32374525Y-75053368D01*
X32258000Y-75227760D01*
X32141475Y-75053368D01*
X31934632Y-74846525D01*
X31691411Y-74684010D01*
X31421158Y-74572068D01*
X31134260Y-74515000D01*
X30841740Y-74515000D01*
X30554842Y-74572068D01*
X30284589Y-74684010D01*
X30041368Y-74846525D01*
X29909513Y-74978380D01*
X29887502Y-74905820D01*
X29828537Y-74795506D01*
X29749185Y-74698815D01*
X29652494Y-74619463D01*
X29542180Y-74560498D01*
X29422482Y-74524188D01*
X29298000Y-74511928D01*
X28733750Y-74515000D01*
X28575000Y-74673750D01*
X28321000Y-74673750D01*
X28162250Y-74515000D01*
X27598000Y-74511928D01*
X27473518Y-74524188D01*
X27353820Y-74560498D01*
X27243506Y-74619463D01*
X27146815Y-74698815D01*
X27067463Y-74795506D01*
X27008498Y-74905820D01*
X26972188Y-75025518D01*
X26959928Y-75150000D01*
X22720762Y-75150000D01*
X22579003Y-75091282D01*
X22195505Y-75015000D01*
X21804495Y-75015000D01*
X21420997Y-75091282D01*
X21059750Y-75240915D01*
X20734636Y-75458149D01*
X20458149Y-75734636D01*
X20240915Y-76059750D01*
X20091282Y-76420997D01*
X20015000Y-76804495D01*
X16846200Y-76804495D01*
X16846200Y-72634600D01*
X67567787Y-72634600D01*
X67643247Y-73398814D01*
G37*
X67643247Y-73398814D02*
X67647106Y-73421536D01*
X67649371Y-73444473D01*
X67658665Y-73489592D01*
X67923975Y-74582980D01*
X67930959Y-74604945D01*
X67936394Y-74627342D01*
X67951877Y-74670730D01*
X68366775Y-75716554D01*
X68376749Y-75737335D01*
X68385247Y-75758756D01*
X68406617Y-75799566D01*
X68963029Y-76777469D01*
X68975796Y-76796657D01*
X68987194Y-76816689D01*
X69014036Y-76854128D01*
X69701130Y-77745077D01*
X69716444Y-77762302D01*
X69730519Y-77780553D01*
X69762311Y-77813892D01*
X70566713Y-78600544D01*
X70584283Y-78615477D01*
X70600754Y-78631584D01*
X70636861Y-78660162D01*
X70636875Y-78660174D01*
X70636882Y-78660179D01*
X71542931Y-79327221D01*
X71562406Y-79339562D01*
X71580961Y-79353222D01*
X71620710Y-79376507D01*
X72610783Y-79910963D01*
X72631786Y-79920473D01*
X72652060Y-79931417D01*
X72694663Y-79948943D01*
X73749482Y-80340406D01*
X73771602Y-80346900D01*
X73793205Y-80354917D01*
X73837832Y-80366343D01*
X74936867Y-80607194D01*
X74959673Y-80610546D01*
X74982184Y-80615479D01*
X75027967Y-80620583D01*
X75540000Y-80659630D01*
X75540001Y-118384990D01*
X74913911Y-118437570D01*
X74878064Y-118443152D01*
X74842074Y-118447603D01*
X74821797Y-118451913D01*
X74821793Y-118451914D01*
X74821790Y-118451915D01*
X73720285Y-118704203D01*
X73685591Y-118714777D01*
X73650577Y-118724258D01*
X73631106Y-118731383D01*
X72576134Y-119136360D01*
X72543247Y-119151731D01*
X72509949Y-119166037D01*
X72491684Y-119175830D01*
X72491676Y-119175834D01*
X72491670Y-119175838D01*
X71504291Y-119725417D01*
X71473910Y-119745260D01*
X71442946Y-119764124D01*
X71426236Y-119776398D01*
X70526139Y-120459623D01*
X70498868Y-120483539D01*
X70470861Y-120506586D01*
X70456047Y-120521092D01*
X69661196Y-121324326D01*
X69637563Y-121351851D01*
X69613087Y-121378609D01*
X69600465Y-121395058D01*
X68926720Y-122302273D01*
X68907196Y-122332862D01*
X68886739Y-122362795D01*
X68876566Y-122380849D01*
X68876561Y-122380857D01*
X68876561Y-122380858D01*
X68337366Y-123373954D01*
X68322344Y-123406992D01*
X68306312Y-123439504D01*
X68298786Y-123458806D01*
X68298779Y-123458821D01*
X68298775Y-123458834D01*
X67904892Y-124517983D01*
X67894680Y-124552791D01*
X67883383Y-124587255D01*
X67878653Y-124607424D01*
X67878648Y-124607441D01*
X67878646Y-124607455D01*
X67637927Y-125711535D01*
X67632723Y-125747430D01*
X67626393Y-125783147D01*
X67624550Y-125803799D01*
X67586718Y-126319043D01*
X16846200Y-126314658D01*
X16846200Y-121804495D01*
X20015000Y-121804495D01*
X20015000Y-122195505D01*
X20091282Y-122579003D01*
X20240915Y-122940250D01*
X20458149Y-123265364D01*
X20734636Y-123541851D01*
X21059750Y-123759085D01*
X21420997Y-123908718D01*
X21804495Y-123985000D01*
X22195505Y-123985000D01*
X22579003Y-123908718D01*
X22940250Y-123759085D01*
X23265364Y-123541851D01*
X23541851Y-123265364D01*
X23759085Y-122940250D01*
X23908718Y-122579003D01*
X23985000Y-122195505D01*
X23985000Y-121804495D01*
X23908718Y-121420997D01*
X23759085Y-121059750D01*
X23723513Y-121006512D01*
X27515783Y-121006512D01*
X27557213Y-121286130D01*
X27652397Y-121552292D01*
X27717616Y-121674309D01*
X27704815Y-121684815D01*
X27625463Y-121781506D01*
X27566498Y-121891820D01*
X27530188Y-122011518D01*
X27517928Y-122136000D01*
X27517928Y-123736000D01*
X27530188Y-123860482D01*
X27566498Y-123980180D01*
X27625463Y-124090494D01*
X27704815Y-124187185D01*
X27801506Y-124266537D01*
X27911820Y-124325502D01*
X28031518Y-124361812D01*
X28156000Y-124374072D01*
X29756000Y-124374072D01*
X29880482Y-124361812D01*
X30000180Y-124325502D01*
X30110494Y-124266537D01*
X30207185Y-124187185D01*
X30286537Y-124090494D01*
X30345502Y-123980180D01*
X30381812Y-123860482D01*
X30394072Y-123736000D01*
X30394072Y-122794665D01*
X32601000Y-122794665D01*
X32601000Y-123077335D01*
X32656147Y-123354574D01*
X32764320Y-123615727D01*
X32921363Y-123850759D01*
X33121241Y-124050637D01*
X33356273Y-124207680D01*
X33617426Y-124315853D01*
X33894665Y-124371000D01*
X34177335Y-124371000D01*
X34454574Y-124315853D01*
X34715727Y-124207680D01*
X34950759Y-124050637D01*
X35150637Y-123850759D01*
X35307680Y-123615727D01*
X35415853Y-123354574D01*
X35471000Y-123077335D01*
X35471000Y-122794665D01*
X35415853Y-122517426D01*
X35307680Y-122256273D01*
X35150637Y-122021241D01*
X34950759Y-121821363D01*
X34750131Y-121687308D01*
X34777514Y-121672671D01*
X34849097Y-121428702D01*
X34036000Y-120615605D01*
X33222903Y-121428702D01*
X33294486Y-121672671D01*
X33323341Y-121686324D01*
X33121241Y-121821363D01*
X32921363Y-122021241D01*
X32764320Y-122256273D01*
X32656147Y-122517426D01*
X32601000Y-122794665D01*
X30394072Y-122794665D01*
X30394072Y-122136000D01*
X30381812Y-122011518D01*
X30345502Y-121891820D01*
X30286537Y-121781506D01*
X30207185Y-121684815D01*
X30194242Y-121674193D01*
X30313571Y-121422004D01*
X30382300Y-121147816D01*
X30396217Y-120865488D01*
X30354787Y-120585870D01*
X30326408Y-120506512D01*
X32595783Y-120506512D01*
X32637213Y-120786130D01*
X32732397Y-121052292D01*
X32799329Y-121177514D01*
X33043298Y-121249097D01*
X33856395Y-120436000D01*
X34215605Y-120436000D01*
X35028702Y-121249097D01*
X35272671Y-121177514D01*
X35393571Y-120922004D01*
X35462300Y-120647816D01*
X35476217Y-120365488D01*
X35434787Y-120085870D01*
X35339603Y-119819708D01*
X35272671Y-119694486D01*
X35028702Y-119622903D01*
X34215605Y-120436000D01*
X33856395Y-120436000D01*
X33043298Y-119622903D01*
X32799329Y-119694486D01*
X32678429Y-119949996D01*
X32609700Y-120224184D01*
X32595783Y-120506512D01*
X30326408Y-120506512D01*
X30259603Y-120319708D01*
X30192671Y-120194486D01*
X29948702Y-120122903D01*
X29135605Y-120936000D01*
X29149748Y-120950143D01*
X28970143Y-121129748D01*
X28956000Y-121115605D01*
X28941858Y-121129748D01*
X28762253Y-120950143D01*
X28776395Y-120936000D01*
X27963298Y-120122903D01*
X27719329Y-120194486D01*
X27598429Y-120449996D01*
X27529700Y-120724184D01*
X27515783Y-121006512D01*
X23723513Y-121006512D01*
X23541851Y-120734636D01*
X23265364Y-120458149D01*
X22940250Y-120240915D01*
X22579003Y-120091282D01*
X22195505Y-120015000D01*
X21804495Y-120015000D01*
X21420997Y-120091282D01*
X21059750Y-120240915D01*
X20734636Y-120458149D01*
X20458149Y-120734636D01*
X20240915Y-121059750D01*
X20091282Y-121420997D01*
X20015000Y-121804495D01*
X16846200Y-121804495D01*
X16846200Y-119943298D01*
X28142903Y-119943298D01*
X28956000Y-120756395D01*
X29769097Y-119943298D01*
X29697514Y-119699329D01*
X29442004Y-119578429D01*
X29167816Y-119509700D01*
X28885488Y-119495783D01*
X28605870Y-119537213D01*
X28339708Y-119632397D01*
X28214486Y-119699329D01*
X28142903Y-119943298D01*
X16846200Y-119943298D01*
X16846200Y-119443298D01*
X33222903Y-119443298D01*
X34036000Y-120256395D01*
X34849097Y-119443298D01*
X34777514Y-119199329D01*
X34522004Y-119078429D01*
X34247816Y-119009700D01*
X33965488Y-118995783D01*
X33685870Y-119037213D01*
X33419708Y-119132397D01*
X33294486Y-119199329D01*
X33222903Y-119443298D01*
X16846200Y-119443298D01*
X16846200Y-113118000D01*
X17307928Y-113118000D01*
X17320188Y-113242482D01*
X17356498Y-113362180D01*
X17415463Y-113472494D01*
X17494815Y-113569185D01*
X17591506Y-113648537D01*
X17701820Y-113707502D01*
X17774380Y-113729513D01*
X17642525Y-113861368D01*
X17480010Y-114104589D01*
X17368068Y-114374842D01*
X17311000Y-114661740D01*
X17311000Y-114954260D01*
X17368068Y-115241158D01*
X17480010Y-115511411D01*
X17642525Y-115754632D01*
X17849368Y-115961475D01*
X18092589Y-116123990D01*
X18362842Y-116235932D01*
X18649740Y-116293000D01*
X18942260Y-116293000D01*
X19229158Y-116235932D01*
X19499411Y-116123990D01*
X19742632Y-115961475D01*
X19949475Y-115754632D01*
X20000852Y-115677740D01*
X28487000Y-115677740D01*
X28487000Y-115970260D01*
X28544068Y-116257158D01*
X28656010Y-116527411D01*
X28818525Y-116770632D01*
X29025368Y-116977475D01*
X29268589Y-117139990D01*
X29538842Y-117251932D01*
X29825740Y-117309000D01*
X30118260Y-117309000D01*
X30405158Y-117251932D01*
X30675411Y-117139990D01*
X30918632Y-116977475D01*
X31050487Y-116845620D01*
X31072498Y-116918180D01*
X31131463Y-117028494D01*
X31210815Y-117125185D01*
X31307506Y-117204537D01*
X31417820Y-117263502D01*
X31537518Y-117299812D01*
X31662000Y-117312072D01*
X33362000Y-117312072D01*
X33486482Y-117299812D01*
X33606180Y-117263502D01*
X33716494Y-117204537D01*
X33813185Y-117125185D01*
X33892537Y-117028494D01*
X33951502Y-116918180D01*
X33987812Y-116798482D01*
X34000072Y-116674000D01*
X34000072Y-115921558D01*
X37088353Y-112833278D01*
X37117422Y-112809422D01*
X37212645Y-112693392D01*
X37283402Y-112561015D01*
X37326974Y-112417378D01*
X37338000Y-112305426D01*
X37338000Y-112305424D01*
X37341686Y-112268001D01*
X37338000Y-112230578D01*
X37338000Y-91755630D01*
X37927426Y-91166205D01*
X38143499Y-91343532D01*
X38276458Y-91414600D01*
X38143499Y-91485668D01*
X37924992Y-91664992D01*
X37745668Y-91883499D01*
X37612418Y-92132792D01*
X37530364Y-92403291D01*
X37502657Y-92684600D01*
X37530364Y-92965909D01*
X37612418Y-93236408D01*
X37745668Y-93485701D01*
X37924992Y-93704208D01*
X38143499Y-93883532D01*
X38276458Y-93954600D01*
X38143499Y-94025668D01*
X37924992Y-94204992D01*
X37745668Y-94423499D01*
X37612418Y-94672792D01*
X37530364Y-94943291D01*
X37502657Y-95224600D01*
X37530364Y-95505909D01*
X37612418Y-95776408D01*
X37745668Y-96025701D01*
X37924992Y-96244208D01*
X38143499Y-96423532D01*
X38276458Y-96494600D01*
X38143499Y-96565668D01*
X37924992Y-96744992D01*
X37745668Y-96963499D01*
X37612418Y-97212792D01*
X37530364Y-97483291D01*
X37502657Y-97764600D01*
X37530364Y-98045909D01*
X37612418Y-98316408D01*
X37745668Y-98565701D01*
X37924992Y-98784208D01*
X38143499Y-98963532D01*
X38276458Y-99034600D01*
X38143499Y-99105668D01*
X37924992Y-99284992D01*
X37745668Y-99503499D01*
X37612418Y-99752792D01*
X37530364Y-100023291D01*
X37502657Y-100304600D01*
X37530364Y-100585909D01*
X37612418Y-100856408D01*
X37745668Y-101105701D01*
X37924992Y-101324208D01*
X38143499Y-101503532D01*
X38276458Y-101574600D01*
X38143499Y-101645668D01*
X37924992Y-101824992D01*
X37745668Y-102043499D01*
X37612418Y-102292792D01*
X37530364Y-102563291D01*
X37502657Y-102844600D01*
X37530364Y-103125909D01*
X37612418Y-103396408D01*
X37745668Y-103645701D01*
X37924992Y-103864208D01*
X38143499Y-104043532D01*
X38276458Y-104114600D01*
X38143499Y-104185668D01*
X37924992Y-104364992D01*
X37745668Y-104583499D01*
X37612418Y-104832792D01*
X37530364Y-105103291D01*
X37502657Y-105384600D01*
X37530364Y-105665909D01*
X37612418Y-105936408D01*
X37745668Y-106185701D01*
X37924992Y-106404208D01*
X38143499Y-106583532D01*
X38276458Y-106654600D01*
X38143499Y-106725668D01*
X37924992Y-106904992D01*
X37745668Y-107123499D01*
X37612418Y-107372792D01*
X37530364Y-107643291D01*
X37502657Y-107924600D01*
X37530364Y-108205909D01*
X37612418Y-108476408D01*
X37745668Y-108725701D01*
X37924992Y-108944208D01*
X38143499Y-109123532D01*
X38276458Y-109194600D01*
X38143499Y-109265668D01*
X37924992Y-109444992D01*
X37745668Y-109663499D01*
X37612418Y-109912792D01*
X37530364Y-110183291D01*
X37502657Y-110464600D01*
X37530364Y-110745909D01*
X37612418Y-111016408D01*
X37745668Y-111265701D01*
X37924992Y-111484208D01*
X38143499Y-111663532D01*
X38276458Y-111734600D01*
X38143499Y-111805668D01*
X37924992Y-111984992D01*
X37745668Y-112203499D01*
X37612418Y-112452792D01*
X37530364Y-112723291D01*
X37502657Y-113004600D01*
X37530364Y-113285909D01*
X37612418Y-113556408D01*
X37745668Y-113805701D01*
X37924992Y-114024208D01*
X38143499Y-114203532D01*
X38276458Y-114274600D01*
X38143499Y-114345668D01*
X37924992Y-114524992D01*
X37745668Y-114743499D01*
X37612418Y-114992792D01*
X37530364Y-115263291D01*
X37502657Y-115544600D01*
X37530364Y-115825909D01*
X37612418Y-116096408D01*
X37745668Y-116345701D01*
X37924992Y-116564208D01*
X38143499Y-116743532D01*
X38276458Y-116814600D01*
X38143499Y-116885668D01*
X37924992Y-117064992D01*
X37745668Y-117283499D01*
X37612418Y-117532792D01*
X37530364Y-117803291D01*
X37502657Y-118084600D01*
X37530364Y-118365909D01*
X37612418Y-118636408D01*
X37745668Y-118885701D01*
X37924992Y-119104208D01*
X38143499Y-119283532D01*
X38276458Y-119354600D01*
X38143499Y-119425668D01*
X37924992Y-119604992D01*
X37745668Y-119823499D01*
X37612418Y-120072792D01*
X37530364Y-120343291D01*
X37502657Y-120624600D01*
X37530364Y-120905909D01*
X37612418Y-121176408D01*
X37745668Y-121425701D01*
X37924992Y-121644208D01*
X38143499Y-121823532D01*
X38276458Y-121894600D01*
X38143499Y-121965668D01*
X37924992Y-122144992D01*
X37745668Y-122363499D01*
X37612418Y-122612792D01*
X37530364Y-122883291D01*
X37502657Y-123164600D01*
X37530364Y-123445909D01*
X37612418Y-123716408D01*
X37745668Y-123965701D01*
X37924992Y-124184208D01*
X38143499Y-124363532D01*
X38392792Y-124496782D01*
X38663291Y-124578836D01*
X38874108Y-124599600D01*
X39815092Y-124599600D01*
X40025909Y-124578836D01*
X40296408Y-124496782D01*
X40545701Y-124363532D01*
X40764208Y-124184208D01*
X40943532Y-123965701D01*
X41076782Y-123716408D01*
X41158836Y-123445909D01*
X41186543Y-123164600D01*
X41158836Y-122883291D01*
X41076782Y-122612792D01*
X40943532Y-122363499D01*
X40764208Y-122144992D01*
X40545701Y-121965668D01*
X40412742Y-121894600D01*
X40545701Y-121823532D01*
X40764208Y-121644208D01*
X40943532Y-121425701D01*
X41076782Y-121176408D01*
X41158836Y-120905909D01*
X41186543Y-120624600D01*
X41158836Y-120343291D01*
X41076782Y-120072792D01*
X40943532Y-119823499D01*
X40764208Y-119604992D01*
X40545701Y-119425668D01*
X40412742Y-119354600D01*
X40545701Y-119283532D01*
X40764208Y-119104208D01*
X40943532Y-118885701D01*
X41076782Y-118636408D01*
X41158836Y-118365909D01*
X41186543Y-118084600D01*
X41158836Y-117803291D01*
X41076782Y-117532792D01*
X40943532Y-117283499D01*
X40764208Y-117064992D01*
X40545701Y-116885668D01*
X40412742Y-116814600D01*
X40545701Y-116743532D01*
X40764208Y-116564208D01*
X40943532Y-116345701D01*
X41076782Y-116096408D01*
X41158836Y-115825909D01*
X41186543Y-115544600D01*
X41158836Y-115263291D01*
X41076782Y-114992792D01*
X40943532Y-114743499D01*
X40764208Y-114524992D01*
X40545701Y-114345668D01*
X40412742Y-114274600D01*
X40545701Y-114203532D01*
X40764208Y-114024208D01*
X40943532Y-113805701D01*
X41076782Y-113556408D01*
X41158836Y-113285909D01*
X41186543Y-113004600D01*
X41158836Y-112723291D01*
X41076782Y-112452792D01*
X40943532Y-112203499D01*
X40764208Y-111984992D01*
X40545701Y-111805668D01*
X40412742Y-111734600D01*
X40545701Y-111663532D01*
X40764208Y-111484208D01*
X40943532Y-111265701D01*
X41076782Y-111016408D01*
X41158836Y-110745909D01*
X41186543Y-110464600D01*
X41158836Y-110183291D01*
X41076782Y-109912792D01*
X40943532Y-109663499D01*
X40764208Y-109444992D01*
X40545701Y-109265668D01*
X40412742Y-109194600D01*
X40545701Y-109123532D01*
X40764208Y-108944208D01*
X40943532Y-108725701D01*
X41076782Y-108476408D01*
X41158836Y-108205909D01*
X41186543Y-107924600D01*
X41158836Y-107643291D01*
X41076782Y-107372792D01*
X40943532Y-107123499D01*
X40764208Y-106904992D01*
X40545701Y-106725668D01*
X40412742Y-106654600D01*
X40545701Y-106583532D01*
X40764208Y-106404208D01*
X40943532Y-106185701D01*
X41076782Y-105936408D01*
X41158836Y-105665909D01*
X41186543Y-105384600D01*
X41158836Y-105103291D01*
X41076782Y-104832792D01*
X40943532Y-104583499D01*
X40764208Y-104364992D01*
X40545701Y-104185668D01*
X40412742Y-104114600D01*
X40545701Y-104043532D01*
X40764208Y-103864208D01*
X40943532Y-103645701D01*
X41076782Y-103396408D01*
X41158836Y-103125909D01*
X41186543Y-102844600D01*
X41158836Y-102563291D01*
X41076782Y-102292792D01*
X40943532Y-102043499D01*
X40764208Y-101824992D01*
X40545701Y-101645668D01*
X40412742Y-101574600D01*
X40545701Y-101503532D01*
X40764208Y-101324208D01*
X40943532Y-101105701D01*
X41076782Y-100856408D01*
X41158836Y-100585909D01*
X41186543Y-100304600D01*
X41158836Y-100023291D01*
X41076782Y-99752792D01*
X40943532Y-99503499D01*
X40764208Y-99284992D01*
X40545701Y-99105668D01*
X40412742Y-99034600D01*
X40545701Y-98963532D01*
X40764208Y-98784208D01*
X40943532Y-98565701D01*
X41076782Y-98316408D01*
X41158836Y-98045909D01*
X41186543Y-97764600D01*
X41158836Y-97483291D01*
X41076782Y-97212792D01*
X40943532Y-96963499D01*
X40764208Y-96744992D01*
X40545701Y-96565668D01*
X40412742Y-96494600D01*
X40545701Y-96423532D01*
X40764208Y-96244208D01*
X40943532Y-96025701D01*
X41076782Y-95776408D01*
X41158836Y-95505909D01*
X41186543Y-95224600D01*
X41158836Y-94943291D01*
X41076782Y-94672792D01*
X40943532Y-94423499D01*
X40764208Y-94204992D01*
X40545701Y-94025668D01*
X40412742Y-93954600D01*
X40545701Y-93883532D01*
X40764208Y-93704208D01*
X40943532Y-93485701D01*
X41076782Y-93236408D01*
X41158836Y-92965909D01*
X41186543Y-92684600D01*
X41158836Y-92403291D01*
X41076782Y-92132792D01*
X40943532Y-91883499D01*
X40764208Y-91664992D01*
X40545701Y-91485668D01*
X40412742Y-91414600D01*
X40545701Y-91343532D01*
X40764208Y-91164208D01*
X40943532Y-90945701D01*
X41076782Y-90696408D01*
X41158836Y-90425909D01*
X41186543Y-90144600D01*
X41158836Y-89863291D01*
X41076782Y-89592792D01*
X40943532Y-89343499D01*
X40764208Y-89124992D01*
X40545701Y-88945668D01*
X40412742Y-88874600D01*
X40545701Y-88803532D01*
X40764208Y-88624208D01*
X40943532Y-88405701D01*
X41076782Y-88156408D01*
X41158836Y-87885909D01*
X41186543Y-87604600D01*
X41158836Y-87323291D01*
X41076782Y-87052792D01*
X40943532Y-86803499D01*
X40764208Y-86584992D01*
X40545701Y-86405668D01*
X40412742Y-86334600D01*
X40545701Y-86263532D01*
X40764208Y-86084208D01*
X40943532Y-85865701D01*
X41076782Y-85616408D01*
X41158836Y-85345909D01*
X41186543Y-85064600D01*
X41158836Y-84783291D01*
X41076782Y-84512792D01*
X40943532Y-84263499D01*
X40764208Y-84044992D01*
X40545701Y-83865668D01*
X40412742Y-83794600D01*
X40545701Y-83723532D01*
X40764208Y-83544208D01*
X40943532Y-83325701D01*
X41076782Y-83076408D01*
X41158836Y-82805909D01*
X41186543Y-82524600D01*
X41158836Y-82243291D01*
X41076782Y-81972792D01*
X40943532Y-81723499D01*
X40764208Y-81504992D01*
X40545701Y-81325668D01*
X40412742Y-81254600D01*
X40545701Y-81183532D01*
X40764208Y-81004208D01*
X40943532Y-80785701D01*
X41076782Y-80536408D01*
X41158836Y-80265909D01*
X41186543Y-79984600D01*
X52742657Y-79984600D01*
X52770364Y-80265909D01*
X52852418Y-80536408D01*
X52985668Y-80785701D01*
X53164992Y-81004208D01*
X53383499Y-81183532D01*
X53516458Y-81254600D01*
X53383499Y-81325668D01*
X53164992Y-81504992D01*
X52985668Y-81723499D01*
X52852418Y-81972792D01*
X52770364Y-82243291D01*
X52742657Y-82524600D01*
X52770364Y-82805909D01*
X52852418Y-83076408D01*
X52985668Y-83325701D01*
X53164992Y-83544208D01*
X53383499Y-83723532D01*
X53516458Y-83794600D01*
X53383499Y-83865668D01*
X53164992Y-84044992D01*
X52985668Y-84263499D01*
X52852418Y-84512792D01*
X52770364Y-84783291D01*
X52742657Y-85064600D01*
X52770364Y-85345909D01*
X52852418Y-85616408D01*
X52985668Y-85865701D01*
X53164992Y-86084208D01*
X53383499Y-86263532D01*
X53516458Y-86334600D01*
X53383499Y-86405668D01*
X53164992Y-86584992D01*
X52985668Y-86803499D01*
X52852418Y-87052792D01*
X52770364Y-87323291D01*
X52742657Y-87604600D01*
X52770364Y-87885909D01*
X52852418Y-88156408D01*
X52985668Y-88405701D01*
X53164992Y-88624208D01*
X53383499Y-88803532D01*
X53516458Y-88874600D01*
X53383499Y-88945668D01*
X53164992Y-89124992D01*
X52985668Y-89343499D01*
X52852418Y-89592792D01*
X52770364Y-89863291D01*
X52742657Y-90144600D01*
X52770364Y-90425909D01*
X52852418Y-90696408D01*
X52985668Y-90945701D01*
X53164992Y-91164208D01*
X53383499Y-91343532D01*
X53516458Y-91414600D01*
X53383499Y-91485668D01*
X53164992Y-91664992D01*
X52985668Y-91883499D01*
X52852418Y-92132792D01*
X52770364Y-92403291D01*
X52742657Y-92684600D01*
X52770364Y-92965909D01*
X52852418Y-93236408D01*
X52985668Y-93485701D01*
X53164992Y-93704208D01*
X53383499Y-93883532D01*
X53516458Y-93954600D01*
X53383499Y-94025668D01*
X53164992Y-94204992D01*
X52985668Y-94423499D01*
X52852418Y-94672792D01*
X52770364Y-94943291D01*
X52742657Y-95224600D01*
X52770364Y-95505909D01*
X52852418Y-95776408D01*
X52985668Y-96025701D01*
X53164992Y-96244208D01*
X53383499Y-96423532D01*
X53516458Y-96494600D01*
X53383499Y-96565668D01*
X53164992Y-96744992D01*
X52985668Y-96963499D01*
X52852418Y-97212792D01*
X52770364Y-97483291D01*
X52742657Y-97764600D01*
X52770364Y-98045909D01*
X52852418Y-98316408D01*
X52985668Y-98565701D01*
X53164992Y-98784208D01*
X53383499Y-98963532D01*
X53516458Y-99034600D01*
X53383499Y-99105668D01*
X53164992Y-99284992D01*
X52985668Y-99503499D01*
X52852418Y-99752792D01*
X52770364Y-100023291D01*
X52742657Y-100304600D01*
X52770364Y-100585909D01*
X52852418Y-100856408D01*
X52985668Y-101105701D01*
X53164992Y-101324208D01*
X53383499Y-101503532D01*
X53516458Y-101574600D01*
X53383499Y-101645668D01*
X53164992Y-101824992D01*
X52985668Y-102043499D01*
X52852418Y-102292792D01*
X52770364Y-102563291D01*
X52742657Y-102844600D01*
X52770364Y-103125909D01*
X52852418Y-103396408D01*
X52985668Y-103645701D01*
X53164992Y-103864208D01*
X53383499Y-104043532D01*
X53516458Y-104114600D01*
X53383499Y-104185668D01*
X53164992Y-104364992D01*
X52985668Y-104583499D01*
X52852418Y-104832792D01*
X52770364Y-105103291D01*
X52742657Y-105384600D01*
X52770364Y-105665909D01*
X52852418Y-105936408D01*
X52985668Y-106185701D01*
X53164992Y-106404208D01*
X53383499Y-106583532D01*
X53516458Y-106654600D01*
X53383499Y-106725668D01*
X53164992Y-106904992D01*
X52985668Y-107123499D01*
X52852418Y-107372792D01*
X52770364Y-107643291D01*
X52742657Y-107924600D01*
X52770364Y-108205909D01*
X52852418Y-108476408D01*
X52985668Y-108725701D01*
X53164992Y-108944208D01*
X53383499Y-109123532D01*
X53516458Y-109194600D01*
X53383499Y-109265668D01*
X53164992Y-109444992D01*
X52985668Y-109663499D01*
X52852418Y-109912792D01*
X52770364Y-110183291D01*
X52742657Y-110464600D01*
X52770364Y-110745909D01*
X52852418Y-111016408D01*
X52985668Y-111265701D01*
X53164992Y-111484208D01*
X53383499Y-111663532D01*
X53516458Y-111734600D01*
X53383499Y-111805668D01*
X53164992Y-111984992D01*
X52985668Y-112203499D01*
X52852418Y-112452792D01*
X52770364Y-112723291D01*
X52742657Y-113004600D01*
X52770364Y-113285909D01*
X52852418Y-113556408D01*
X52985668Y-113805701D01*
X53164992Y-114024208D01*
X53383499Y-114203532D01*
X53516458Y-114274600D01*
X53383499Y-114345668D01*
X53164992Y-114524992D01*
X52985668Y-114743499D01*
X52852418Y-114992792D01*
X52770364Y-115263291D01*
X52742657Y-115544600D01*
X52770364Y-115825909D01*
X52852418Y-116096408D01*
X52985668Y-116345701D01*
X53164992Y-116564208D01*
X53383499Y-116743532D01*
X53516458Y-116814600D01*
X53383499Y-116885668D01*
X53164992Y-117064992D01*
X52985668Y-117283499D01*
X52852418Y-117532792D01*
X52770364Y-117803291D01*
X52742657Y-118084600D01*
X52770364Y-118365909D01*
X52852418Y-118636408D01*
X52985668Y-118885701D01*
X53164992Y-119104208D01*
X53383499Y-119283532D01*
X53516458Y-119354600D01*
X53383499Y-119425668D01*
X53164992Y-119604992D01*
X52985668Y-119823499D01*
X52852418Y-120072792D01*
X52770364Y-120343291D01*
X52742657Y-120624600D01*
X52770364Y-120905909D01*
X52852418Y-121176408D01*
X52985668Y-121425701D01*
X53164992Y-121644208D01*
X53383499Y-121823532D01*
X53516458Y-121894600D01*
X53383499Y-121965668D01*
X53164992Y-122144992D01*
X52985668Y-122363499D01*
X52852418Y-122612792D01*
X52770364Y-122883291D01*
X52742657Y-123164600D01*
X52770364Y-123445909D01*
X52852418Y-123716408D01*
X52985668Y-123965701D01*
X53164992Y-124184208D01*
X53383499Y-124363532D01*
X53632792Y-124496782D01*
X53903291Y-124578836D01*
X54114108Y-124599600D01*
X55055092Y-124599600D01*
X55265909Y-124578836D01*
X55536408Y-124496782D01*
X55785701Y-124363532D01*
X56004208Y-124184208D01*
X56183532Y-123965701D01*
X56316782Y-123716408D01*
X56398836Y-123445909D01*
X56426543Y-123164600D01*
X56398836Y-122883291D01*
X56316782Y-122612792D01*
X56183532Y-122363499D01*
X56004208Y-122144992D01*
X55785701Y-121965668D01*
X55652742Y-121894600D01*
X55785701Y-121823532D01*
X56004208Y-121644208D01*
X56183532Y-121425701D01*
X56316782Y-121176408D01*
X56398836Y-120905909D01*
X56412944Y-120762665D01*
X59017000Y-120762665D01*
X59017000Y-121045335D01*
X59072147Y-121322574D01*
X59180320Y-121583727D01*
X59337363Y-121818759D01*
X59537241Y-122018637D01*
X59772273Y-122175680D01*
X60033426Y-122283853D01*
X60310665Y-122339000D01*
X60593335Y-122339000D01*
X60870574Y-122283853D01*
X61131727Y-122175680D01*
X61366759Y-122018637D01*
X61566637Y-121818759D01*
X61723680Y-121583727D01*
X61817716Y-121356702D01*
X65226903Y-121356702D01*
X65298486Y-121600671D01*
X65553996Y-121721571D01*
X65828184Y-121790300D01*
X66110512Y-121804217D01*
X66390130Y-121762787D01*
X66656292Y-121667603D01*
X66781514Y-121600671D01*
X66853097Y-121356702D01*
X66040000Y-120543605D01*
X65226903Y-121356702D01*
X61817716Y-121356702D01*
X61831853Y-121322574D01*
X61887000Y-121045335D01*
X61887000Y-120762665D01*
X61831853Y-120485426D01*
X61810764Y-120434512D01*
X64599783Y-120434512D01*
X64641213Y-120714130D01*
X64736397Y-120980292D01*
X64803329Y-121105514D01*
X65047298Y-121177097D01*
X65860395Y-120364000D01*
X65846253Y-120349858D01*
X66025858Y-120170253D01*
X66040000Y-120184395D01*
X66054143Y-120170253D01*
X66233748Y-120349858D01*
X66219605Y-120364000D01*
X67032702Y-121177097D01*
X67276671Y-121105514D01*
X67397571Y-120850004D01*
X67466300Y-120575816D01*
X67480217Y-120293488D01*
X67438787Y-120013870D01*
X67343603Y-119747708D01*
X67278384Y-119625691D01*
X67291185Y-119615185D01*
X67370537Y-119518494D01*
X67429502Y-119408180D01*
X67465812Y-119288482D01*
X67478072Y-119164000D01*
X67478072Y-117564000D01*
X67465812Y-117439518D01*
X67429502Y-117319820D01*
X67370537Y-117209506D01*
X67291185Y-117112815D01*
X67194494Y-117033463D01*
X67084180Y-116974498D01*
X66964482Y-116938188D01*
X66840000Y-116925928D01*
X65240000Y-116925928D01*
X65115518Y-116938188D01*
X64995820Y-116974498D01*
X64885506Y-117033463D01*
X64788815Y-117112815D01*
X64709463Y-117209506D01*
X64650498Y-117319820D01*
X64614188Y-117439518D01*
X64601928Y-117564000D01*
X64601928Y-119164000D01*
X64614188Y-119288482D01*
X64650498Y-119408180D01*
X64709463Y-119518494D01*
X64788815Y-119615185D01*
X64801758Y-119625807D01*
X64682429Y-119877996D01*
X64613700Y-120152184D01*
X64599783Y-120434512D01*
X61810764Y-120434512D01*
X61723680Y-120224273D01*
X61566637Y-119989241D01*
X61366759Y-119789363D01*
X61166131Y-119655308D01*
X61193514Y-119640671D01*
X61265097Y-119396702D01*
X60452000Y-118583605D01*
X59638903Y-119396702D01*
X59710486Y-119640671D01*
X59739341Y-119654324D01*
X59537241Y-119789363D01*
X59337363Y-119989241D01*
X59180320Y-120224273D01*
X59072147Y-120485426D01*
X59017000Y-120762665D01*
X56412944Y-120762665D01*
X56426543Y-120624600D01*
X56398836Y-120343291D01*
X56316782Y-120072792D01*
X56183532Y-119823499D01*
X56004208Y-119604992D01*
X55785701Y-119425668D01*
X55652742Y-119354600D01*
X55785701Y-119283532D01*
X56004208Y-119104208D01*
X56183532Y-118885701D01*
X56316782Y-118636408D01*
X56365892Y-118474512D01*
X59011783Y-118474512D01*
X59053213Y-118754130D01*
X59148397Y-119020292D01*
X59215329Y-119145514D01*
X59459298Y-119217097D01*
X60272395Y-118404000D01*
X60631605Y-118404000D01*
X61444702Y-119217097D01*
X61688671Y-119145514D01*
X61809571Y-118890004D01*
X61878300Y-118615816D01*
X61892217Y-118333488D01*
X61850787Y-118053870D01*
X61755603Y-117787708D01*
X61688671Y-117662486D01*
X61444702Y-117590903D01*
X60631605Y-118404000D01*
X60272395Y-118404000D01*
X59459298Y-117590903D01*
X59215329Y-117662486D01*
X59094429Y-117917996D01*
X59025700Y-118192184D01*
X59011783Y-118474512D01*
X56365892Y-118474512D01*
X56398836Y-118365909D01*
X56426543Y-118084600D01*
X56398836Y-117803291D01*
X56316782Y-117532792D01*
X56251843Y-117411298D01*
X59638903Y-117411298D01*
X60452000Y-118224395D01*
X61265097Y-117411298D01*
X61193514Y-117167329D01*
X60938004Y-117046429D01*
X60663816Y-116977700D01*
X60381488Y-116963783D01*
X60101870Y-117005213D01*
X59835708Y-117100397D01*
X59710486Y-117167329D01*
X59638903Y-117411298D01*
X56251843Y-117411298D01*
X56183532Y-117283499D01*
X56004208Y-117064992D01*
X55785701Y-116885668D01*
X55652742Y-116814600D01*
X55785701Y-116743532D01*
X56004208Y-116564208D01*
X56183532Y-116345701D01*
X56316782Y-116096408D01*
X56398836Y-115825909D01*
X56426543Y-115544600D01*
X56398836Y-115263291D01*
X56316782Y-114992792D01*
X56183532Y-114743499D01*
X56004208Y-114524992D01*
X55785701Y-114345668D01*
X55652742Y-114274600D01*
X55785701Y-114203532D01*
X56004208Y-114024208D01*
X56183532Y-113805701D01*
X56316782Y-113556408D01*
X56398836Y-113285909D01*
X56426543Y-113004600D01*
X56406835Y-112804495D01*
X69015000Y-112804495D01*
X69015000Y-113195505D01*
X69091282Y-113579003D01*
X69240915Y-113940250D01*
X69458149Y-114265364D01*
X69734636Y-114541851D01*
X70059750Y-114759085D01*
X70420997Y-114908718D01*
X70804495Y-114985000D01*
X71195505Y-114985000D01*
X71579003Y-114908718D01*
X71940250Y-114759085D01*
X72265364Y-114541851D01*
X72541851Y-114265364D01*
X72759085Y-113940250D01*
X72908718Y-113579003D01*
X72985000Y-113195505D01*
X72985000Y-112804495D01*
X72908718Y-112420997D01*
X72759085Y-112059750D01*
X72541851Y-111734636D01*
X72265364Y-111458149D01*
X71940250Y-111240915D01*
X71579003Y-111091282D01*
X71195505Y-111015000D01*
X70804495Y-111015000D01*
X70420997Y-111091282D01*
X70059750Y-111240915D01*
X69734636Y-111458149D01*
X69458149Y-111734636D01*
X69240915Y-112059750D01*
X69091282Y-112420997D01*
X69015000Y-112804495D01*
X56406835Y-112804495D01*
X56398836Y-112723291D01*
X56316782Y-112452792D01*
X56183532Y-112203499D01*
X56004208Y-111984992D01*
X55785701Y-111805668D01*
X55652742Y-111734600D01*
X55785701Y-111663532D01*
X56004208Y-111484208D01*
X56183532Y-111265701D01*
X56316782Y-111016408D01*
X56398836Y-110745909D01*
X56426543Y-110464600D01*
X56398836Y-110183291D01*
X56316782Y-109912792D01*
X56183532Y-109663499D01*
X56004208Y-109444992D01*
X55785701Y-109265668D01*
X55652742Y-109194600D01*
X55785701Y-109123532D01*
X56004208Y-108944208D01*
X56183532Y-108725701D01*
X56316782Y-108476408D01*
X56398836Y-108205909D01*
X56426543Y-107924600D01*
X56398836Y-107643291D01*
X56316782Y-107372792D01*
X56183532Y-107123499D01*
X56004208Y-106904992D01*
X55785701Y-106725668D01*
X55652742Y-106654600D01*
X55785701Y-106583532D01*
X56004208Y-106404208D01*
X56183532Y-106185701D01*
X56316782Y-105936408D01*
X56398836Y-105665909D01*
X56412944Y-105522665D01*
X64605000Y-105522665D01*
X64605000Y-105805335D01*
X64660147Y-106082574D01*
X64768320Y-106343727D01*
X64925363Y-106578759D01*
X65125241Y-106778637D01*
X65360273Y-106935680D01*
X65621426Y-107043853D01*
X65898665Y-107099000D01*
X66181335Y-107099000D01*
X66458574Y-107043853D01*
X66719727Y-106935680D01*
X66954759Y-106778637D01*
X67154637Y-106578759D01*
X67311680Y-106343727D01*
X67316067Y-106333135D01*
X67427615Y-106519131D01*
X67616586Y-106727519D01*
X67842580Y-106895037D01*
X68096913Y-107015246D01*
X68230961Y-107055904D01*
X68453000Y-106933915D01*
X68453000Y-105791000D01*
X68433000Y-105791000D01*
X68433000Y-105537000D01*
X68453000Y-105537000D01*
X68453000Y-104394085D01*
X68707000Y-104394085D01*
X68707000Y-105537000D01*
X68727000Y-105537000D01*
X68727000Y-105791000D01*
X68707000Y-105791000D01*
X68707000Y-106933915D01*
X68929039Y-107055904D01*
X69063087Y-107015246D01*
X69317420Y-106895037D01*
X69543414Y-106727519D01*
X69732385Y-106519131D01*
X69843933Y-106333135D01*
X69848320Y-106343727D01*
X70005363Y-106578759D01*
X70205241Y-106778637D01*
X70440273Y-106935680D01*
X70701426Y-107043853D01*
X70978665Y-107099000D01*
X71261335Y-107099000D01*
X71538574Y-107043853D01*
X71799727Y-106935680D01*
X72034759Y-106778637D01*
X72234637Y-106578759D01*
X72391680Y-106343727D01*
X72499853Y-106082574D01*
X72555000Y-105805335D01*
X72555000Y-105522665D01*
X72499853Y-105245426D01*
X72391680Y-104984273D01*
X72234637Y-104749241D01*
X72034759Y-104549363D01*
X71799727Y-104392320D01*
X71538574Y-104284147D01*
X71261335Y-104229000D01*
X70978665Y-104229000D01*
X70701426Y-104284147D01*
X70440273Y-104392320D01*
X70205241Y-104549363D01*
X70005363Y-104749241D01*
X69848320Y-104984273D01*
X69843933Y-104994865D01*
X69732385Y-104808869D01*
X69543414Y-104600481D01*
X69317420Y-104432963D01*
X69063087Y-104312754D01*
X68929039Y-104272096D01*
X68707000Y-104394085D01*
X68453000Y-104394085D01*
X68230961Y-104272096D01*
X68096913Y-104312754D01*
X67842580Y-104432963D01*
X67616586Y-104600481D01*
X67427615Y-104808869D01*
X67316067Y-104994865D01*
X67311680Y-104984273D01*
X67154637Y-104749241D01*
X66954759Y-104549363D01*
X66719727Y-104392320D01*
X66458574Y-104284147D01*
X66181335Y-104229000D01*
X65898665Y-104229000D01*
X65621426Y-104284147D01*
X65360273Y-104392320D01*
X65125241Y-104549363D01*
X64925363Y-104749241D01*
X64768320Y-104984273D01*
X64660147Y-105245426D01*
X64605000Y-105522665D01*
X56412944Y-105522665D01*
X56426543Y-105384600D01*
X56398836Y-105103291D01*
X56316782Y-104832792D01*
X56183532Y-104583499D01*
X56004208Y-104364992D01*
X55785701Y-104185668D01*
X55652742Y-104114600D01*
X55785701Y-104043532D01*
X56004208Y-103864208D01*
X56183532Y-103645701D01*
X56316782Y-103396408D01*
X56398836Y-103125909D01*
X56426543Y-102844600D01*
X56398836Y-102563291D01*
X56316782Y-102292792D01*
X56183532Y-102043499D01*
X56004208Y-101824992D01*
X55785701Y-101645668D01*
X55652742Y-101574600D01*
X55785701Y-101503532D01*
X56004208Y-101324208D01*
X56183532Y-101105701D01*
X56316782Y-100856408D01*
X56398836Y-100585909D01*
X56426543Y-100304600D01*
X56398836Y-100023291D01*
X56371952Y-99934665D01*
X58001000Y-99934665D01*
X58001000Y-100217335D01*
X58056147Y-100494574D01*
X58164320Y-100755727D01*
X58321363Y-100990759D01*
X58521241Y-101190637D01*
X58756273Y-101347680D01*
X59017426Y-101455853D01*
X59294665Y-101511000D01*
X59577335Y-101511000D01*
X59854574Y-101455853D01*
X60115727Y-101347680D01*
X60350759Y-101190637D01*
X60550637Y-100990759D01*
X60707680Y-100755727D01*
X60815853Y-100494574D01*
X60871000Y-100217335D01*
X60871000Y-99934665D01*
X60815853Y-99657426D01*
X60707680Y-99396273D01*
X60550637Y-99161241D01*
X60350759Y-98961363D01*
X60115727Y-98804320D01*
X59854574Y-98696147D01*
X59577335Y-98641000D01*
X59294665Y-98641000D01*
X59017426Y-98696147D01*
X58756273Y-98804320D01*
X58521241Y-98961363D01*
X58321363Y-99161241D01*
X58164320Y-99396273D01*
X58056147Y-99657426D01*
X58001000Y-99934665D01*
X56371952Y-99934665D01*
X56316782Y-99752792D01*
X56183532Y-99503499D01*
X56004208Y-99284992D01*
X55785701Y-99105668D01*
X55652742Y-99034600D01*
X55785701Y-98963532D01*
X56004208Y-98784208D01*
X56183532Y-98565701D01*
X56316782Y-98316408D01*
X56398836Y-98045909D01*
X56412944Y-97902665D01*
X64605000Y-97902665D01*
X64605000Y-98185335D01*
X64660147Y-98462574D01*
X64768320Y-98723727D01*
X64925363Y-98958759D01*
X65125241Y-99158637D01*
X65360273Y-99315680D01*
X65621426Y-99423853D01*
X65898665Y-99479000D01*
X66181335Y-99479000D01*
X66458574Y-99423853D01*
X66719727Y-99315680D01*
X66954759Y-99158637D01*
X67154637Y-98958759D01*
X67311680Y-98723727D01*
X67316067Y-98713135D01*
X67427615Y-98899131D01*
X67616586Y-99107519D01*
X67842580Y-99275037D01*
X68096913Y-99395246D01*
X68230961Y-99435904D01*
X68453000Y-99313915D01*
X68453000Y-98171000D01*
X68433000Y-98171000D01*
X68433000Y-97917000D01*
X68453000Y-97917000D01*
X68453000Y-96774085D01*
X68707000Y-96774085D01*
X68707000Y-97917000D01*
X68727000Y-97917000D01*
X68727000Y-98171000D01*
X68707000Y-98171000D01*
X68707000Y-99313915D01*
X68929039Y-99435904D01*
X69063087Y-99395246D01*
X69317420Y-99275037D01*
X69543414Y-99107519D01*
X69691769Y-98943920D01*
X69694188Y-98968482D01*
X69730498Y-99088180D01*
X69789463Y-99198494D01*
X69868815Y-99295185D01*
X69965506Y-99374537D01*
X70075820Y-99433502D01*
X70195518Y-99469812D01*
X70320000Y-99482072D01*
X71920000Y-99482072D01*
X72044482Y-99469812D01*
X72164180Y-99433502D01*
X72274494Y-99374537D01*
X72371185Y-99295185D01*
X72450537Y-99198494D01*
X72509502Y-99088180D01*
X72545812Y-98968482D01*
X72558072Y-98844000D01*
X72558072Y-97244000D01*
X72545812Y-97119518D01*
X72509502Y-96999820D01*
X72450537Y-96889506D01*
X72371185Y-96792815D01*
X72274494Y-96713463D01*
X72164180Y-96654498D01*
X72044482Y-96618188D01*
X71920000Y-96605928D01*
X70320000Y-96605928D01*
X70195518Y-96618188D01*
X70075820Y-96654498D01*
X69965506Y-96713463D01*
X69868815Y-96792815D01*
X69789463Y-96889506D01*
X69730498Y-96999820D01*
X69694188Y-97119518D01*
X69691769Y-97144080D01*
X69543414Y-96980481D01*
X69317420Y-96812963D01*
X69063087Y-96692754D01*
X68929039Y-96652096D01*
X68707000Y-96774085D01*
X68453000Y-96774085D01*
X68230961Y-96652096D01*
X68096913Y-96692754D01*
X67842580Y-96812963D01*
X67616586Y-96980481D01*
X67427615Y-97188869D01*
X67316067Y-97374865D01*
X67311680Y-97364273D01*
X67154637Y-97129241D01*
X66954759Y-96929363D01*
X66719727Y-96772320D01*
X66458574Y-96664147D01*
X66181335Y-96609000D01*
X65898665Y-96609000D01*
X65621426Y-96664147D01*
X65360273Y-96772320D01*
X65125241Y-96929363D01*
X64925363Y-97129241D01*
X64768320Y-97364273D01*
X64660147Y-97625426D01*
X64605000Y-97902665D01*
X56412944Y-97902665D01*
X56426543Y-97764600D01*
X56398836Y-97483291D01*
X56316782Y-97212792D01*
X56183532Y-96963499D01*
X56004208Y-96744992D01*
X55785701Y-96565668D01*
X55652742Y-96494600D01*
X55785701Y-96423532D01*
X56004208Y-96244208D01*
X56183532Y-96025701D01*
X56316782Y-95776408D01*
X56398836Y-95505909D01*
X56426543Y-95224600D01*
X56398836Y-94943291D01*
X56316782Y-94672792D01*
X56183532Y-94423499D01*
X56004208Y-94204992D01*
X55785701Y-94025668D01*
X55652742Y-93954600D01*
X55785701Y-93883532D01*
X56004208Y-93704208D01*
X56183532Y-93485701D01*
X56316782Y-93236408D01*
X56398836Y-92965909D01*
X56426543Y-92684600D01*
X56398836Y-92403291D01*
X56371952Y-92314665D01*
X58001000Y-92314665D01*
X58001000Y-92597335D01*
X58056147Y-92874574D01*
X58164320Y-93135727D01*
X58321363Y-93370759D01*
X58521241Y-93570637D01*
X58756273Y-93727680D01*
X59017426Y-93835853D01*
X59294665Y-93891000D01*
X59577335Y-93891000D01*
X59854574Y-93835853D01*
X60115727Y-93727680D01*
X60350759Y-93570637D01*
X60550637Y-93370759D01*
X60707680Y-93135727D01*
X60815853Y-92874574D01*
X60871000Y-92597335D01*
X60871000Y-92314665D01*
X60821139Y-92064000D01*
X62469928Y-92064000D01*
X62469928Y-93864000D01*
X62482188Y-93988482D01*
X62518498Y-94108180D01*
X62577463Y-94218494D01*
X62656815Y-94315185D01*
X62753506Y-94394537D01*
X62863820Y-94453502D01*
X62983518Y-94489812D01*
X63108000Y-94502072D01*
X64908000Y-94502072D01*
X65032482Y-94489812D01*
X65152180Y-94453502D01*
X65262494Y-94394537D01*
X65359185Y-94315185D01*
X65438537Y-94218494D01*
X65497502Y-94108180D01*
X65533812Y-93988482D01*
X65546072Y-93864000D01*
X65546072Y-93328740D01*
X70136964Y-93328740D01*
X70185606Y-93489107D01*
X70315764Y-93760414D01*
X70496351Y-94001116D01*
X70720427Y-94201962D01*
X70979380Y-94355234D01*
X71263259Y-94455041D01*
X71501000Y-94334992D01*
X71501000Y-93091000D01*
X71755000Y-93091000D01*
X71755000Y-94334992D01*
X71992741Y-94455041D01*
X72276620Y-94355234D01*
X72535573Y-94201962D01*
X72759649Y-94001116D01*
X72940236Y-93760414D01*
X73070394Y-93489107D01*
X73119036Y-93328740D01*
X72998378Y-93091000D01*
X71755000Y-93091000D01*
X71501000Y-93091000D01*
X70257622Y-93091000D01*
X70136964Y-93328740D01*
X65546072Y-93328740D01*
X65546072Y-92599260D01*
X70136964Y-92599260D01*
X70257622Y-92837000D01*
X71501000Y-92837000D01*
X71501000Y-91593008D01*
X71755000Y-91593008D01*
X71755000Y-92837000D01*
X72998378Y-92837000D01*
X73119036Y-92599260D01*
X73070394Y-92438893D01*
X72940236Y-92167586D01*
X72759649Y-91926884D01*
X72535573Y-91726038D01*
X72276620Y-91572766D01*
X71992741Y-91472959D01*
X71755000Y-91593008D01*
X71501000Y-91593008D01*
X71263259Y-91472959D01*
X70979380Y-91572766D01*
X70720427Y-91726038D01*
X70496351Y-91926884D01*
X70315764Y-92167586D01*
X70185606Y-92438893D01*
X70136964Y-92599260D01*
X65546072Y-92599260D01*
X65546072Y-92064000D01*
X65533812Y-91939518D01*
X65497502Y-91819820D01*
X65438537Y-91709506D01*
X65359185Y-91612815D01*
X65262494Y-91533463D01*
X65152180Y-91474498D01*
X65032482Y-91438188D01*
X64908000Y-91425928D01*
X63108000Y-91425928D01*
X62983518Y-91438188D01*
X62863820Y-91474498D01*
X62753506Y-91533463D01*
X62656815Y-91612815D01*
X62577463Y-91709506D01*
X62518498Y-91819820D01*
X62482188Y-91939518D01*
X62469928Y-92064000D01*
X60821139Y-92064000D01*
X60815853Y-92037426D01*
X60707680Y-91776273D01*
X60550637Y-91541241D01*
X60350759Y-91341363D01*
X60115727Y-91184320D01*
X59854574Y-91076147D01*
X59577335Y-91021000D01*
X59294665Y-91021000D01*
X59017426Y-91076147D01*
X58756273Y-91184320D01*
X58521241Y-91341363D01*
X58321363Y-91541241D01*
X58164320Y-91776273D01*
X58056147Y-92037426D01*
X58001000Y-92314665D01*
X56371952Y-92314665D01*
X56316782Y-92132792D01*
X56183532Y-91883499D01*
X56004208Y-91664992D01*
X55785701Y-91485668D01*
X55652742Y-91414600D01*
X55785701Y-91343532D01*
X56004208Y-91164208D01*
X56183532Y-90945701D01*
X56316782Y-90696408D01*
X56398836Y-90425909D01*
X56426543Y-90144600D01*
X56398836Y-89863291D01*
X56316782Y-89592792D01*
X56183532Y-89343499D01*
X56004208Y-89124992D01*
X55785701Y-88945668D01*
X55652742Y-88874600D01*
X55785701Y-88803532D01*
X56004208Y-88624208D01*
X56183532Y-88405701D01*
X56316782Y-88156408D01*
X56364227Y-88000000D01*
X57897928Y-88000000D01*
X57897928Y-89800000D01*
X57910188Y-89924482D01*
X57946498Y-90044180D01*
X58005463Y-90154494D01*
X58084815Y-90251185D01*
X58181506Y-90330537D01*
X58291820Y-90389502D01*
X58411518Y-90425812D01*
X58536000Y-90438072D01*
X60336000Y-90438072D01*
X60460482Y-90425812D01*
X60580180Y-90389502D01*
X60690494Y-90330537D01*
X60787185Y-90251185D01*
X60866537Y-90154494D01*
X60925502Y-90044180D01*
X60961812Y-89924482D01*
X60974072Y-89800000D01*
X60974072Y-88758665D01*
X62573000Y-88758665D01*
X62573000Y-89041335D01*
X62628147Y-89318574D01*
X62736320Y-89579727D01*
X62893363Y-89814759D01*
X63093241Y-90014637D01*
X63328273Y-90171680D01*
X63589426Y-90279853D01*
X63866665Y-90335000D01*
X64149335Y-90335000D01*
X64426574Y-90279853D01*
X64687727Y-90171680D01*
X64922759Y-90014637D01*
X65122637Y-89814759D01*
X65279680Y-89579727D01*
X65387853Y-89318574D01*
X65443000Y-89041335D01*
X65443000Y-88758665D01*
X65387853Y-88481426D01*
X65279680Y-88220273D01*
X65122637Y-87985241D01*
X64922759Y-87785363D01*
X64687727Y-87628320D01*
X64426574Y-87520147D01*
X64149335Y-87465000D01*
X63866665Y-87465000D01*
X63589426Y-87520147D01*
X63328273Y-87628320D01*
X63093241Y-87785363D01*
X62893363Y-87985241D01*
X62736320Y-88220273D01*
X62628147Y-88481426D01*
X62573000Y-88758665D01*
X60974072Y-88758665D01*
X60974072Y-88000000D01*
X60961812Y-87875518D01*
X60925502Y-87755820D01*
X60866537Y-87645506D01*
X60787185Y-87548815D01*
X60690494Y-87469463D01*
X60580180Y-87410498D01*
X60460482Y-87374188D01*
X60336000Y-87361928D01*
X58536000Y-87361928D01*
X58411518Y-87374188D01*
X58291820Y-87410498D01*
X58181506Y-87469463D01*
X58084815Y-87548815D01*
X58005463Y-87645506D01*
X57946498Y-87755820D01*
X57910188Y-87875518D01*
X57897928Y-88000000D01*
X56364227Y-88000000D01*
X56398836Y-87885909D01*
X56426543Y-87604600D01*
X56398836Y-87323291D01*
X56316782Y-87052792D01*
X56183532Y-86803499D01*
X56004208Y-86584992D01*
X55785701Y-86405668D01*
X55652742Y-86334600D01*
X55785701Y-86263532D01*
X56004208Y-86084208D01*
X56183532Y-85865701D01*
X56316782Y-85616408D01*
X56398836Y-85345909D01*
X56426543Y-85064600D01*
X56400925Y-84804495D01*
X69015000Y-84804495D01*
X69015000Y-85195505D01*
X69091282Y-85579003D01*
X69240915Y-85940250D01*
X69458149Y-86265364D01*
X69734636Y-86541851D01*
X70059750Y-86759085D01*
X70420997Y-86908718D01*
X70804495Y-86985000D01*
X71195505Y-86985000D01*
X71579003Y-86908718D01*
X71940250Y-86759085D01*
X72265364Y-86541851D01*
X72541851Y-86265364D01*
X72759085Y-85940250D01*
X72908718Y-85579003D01*
X72985000Y-85195505D01*
X72985000Y-84804495D01*
X72908718Y-84420997D01*
X72759085Y-84059750D01*
X72541851Y-83734636D01*
X72265364Y-83458149D01*
X71940250Y-83240915D01*
X71579003Y-83091282D01*
X71195505Y-83015000D01*
X70804495Y-83015000D01*
X70420997Y-83091282D01*
X70059750Y-83240915D01*
X69734636Y-83458149D01*
X69458149Y-83734636D01*
X69240915Y-84059750D01*
X69091282Y-84420997D01*
X69015000Y-84804495D01*
X56400925Y-84804495D01*
X56398836Y-84783291D01*
X56316782Y-84512792D01*
X56183532Y-84263499D01*
X56004208Y-84044992D01*
X55785701Y-83865668D01*
X55652742Y-83794600D01*
X55785701Y-83723532D01*
X56004208Y-83544208D01*
X56183532Y-83325701D01*
X56316782Y-83076408D01*
X56398836Y-82805909D01*
X56426543Y-82524600D01*
X56398836Y-82243291D01*
X56316782Y-81972792D01*
X56183532Y-81723499D01*
X56004208Y-81504992D01*
X55785701Y-81325668D01*
X55652742Y-81254600D01*
X55785701Y-81183532D01*
X55852372Y-81128816D01*
X57901000Y-81128816D01*
X57901000Y-81431184D01*
X57959989Y-81727743D01*
X58075701Y-82007095D01*
X58243688Y-82258505D01*
X58457495Y-82472312D01*
X58708905Y-82640299D01*
X58988257Y-82756011D01*
X59284816Y-82815000D01*
X59587184Y-82815000D01*
X59883743Y-82756011D01*
X60163095Y-82640299D01*
X60414505Y-82472312D01*
X60628312Y-82258505D01*
X60796299Y-82007095D01*
X60912011Y-81727743D01*
X60971000Y-81431184D01*
X60971000Y-81138665D01*
X62573000Y-81138665D01*
X62573000Y-81421335D01*
X62628147Y-81698574D01*
X62736320Y-81959727D01*
X62893363Y-82194759D01*
X63093241Y-82394637D01*
X63328273Y-82551680D01*
X63589426Y-82659853D01*
X63866665Y-82715000D01*
X64149335Y-82715000D01*
X64426574Y-82659853D01*
X64687727Y-82551680D01*
X64922759Y-82394637D01*
X65122637Y-82194759D01*
X65279680Y-81959727D01*
X65387853Y-81698574D01*
X65443000Y-81421335D01*
X65443000Y-81138665D01*
X65387853Y-80861426D01*
X65279680Y-80600273D01*
X65122637Y-80365241D01*
X64922759Y-80165363D01*
X64687727Y-80008320D01*
X64426574Y-79900147D01*
X64149335Y-79845000D01*
X63866665Y-79845000D01*
X63589426Y-79900147D01*
X63328273Y-80008320D01*
X63093241Y-80165363D01*
X62893363Y-80365241D01*
X62736320Y-80600273D01*
X62628147Y-80861426D01*
X62573000Y-81138665D01*
X60971000Y-81138665D01*
X60971000Y-81128816D01*
X60912011Y-80832257D01*
X60796299Y-80552905D01*
X60628312Y-80301495D01*
X60414505Y-80087688D01*
X60163095Y-79919701D01*
X59883743Y-79803989D01*
X59587184Y-79745000D01*
X59284816Y-79745000D01*
X58988257Y-79803989D01*
X58708905Y-79919701D01*
X58457495Y-80087688D01*
X58243688Y-80301495D01*
X58075701Y-80552905D01*
X57959989Y-80832257D01*
X57901000Y-81128816D01*
X55852372Y-81128816D01*
X56004208Y-81004208D01*
X56183532Y-80785701D01*
X56316782Y-80536408D01*
X56398836Y-80265909D01*
X56426543Y-79984600D01*
X56398836Y-79703291D01*
X56316782Y-79432792D01*
X56183532Y-79183499D01*
X56004208Y-78964992D01*
X55785701Y-78785668D01*
X55657859Y-78717335D01*
X55887439Y-78567201D01*
X56089100Y-78369495D01*
X56248315Y-78136246D01*
X56358967Y-77876418D01*
X56376504Y-77793639D01*
X56254515Y-77571600D01*
X54711600Y-77571600D01*
X54711600Y-77591600D01*
X54457600Y-77591600D01*
X54457600Y-77571600D01*
X52914685Y-77571600D01*
X52792696Y-77793639D01*
X52810233Y-77876418D01*
X52920885Y-78136246D01*
X53080100Y-78369495D01*
X53281761Y-78567201D01*
X53511341Y-78717335D01*
X53383499Y-78785668D01*
X53164992Y-78964992D01*
X52985668Y-79183499D01*
X52852418Y-79432792D01*
X52770364Y-79703291D01*
X52742657Y-79984600D01*
X41186543Y-79984600D01*
X41158836Y-79703291D01*
X41076782Y-79432792D01*
X40943532Y-79183499D01*
X40764208Y-78964992D01*
X40545701Y-78785668D01*
X40412742Y-78714600D01*
X40545701Y-78643532D01*
X40764208Y-78464208D01*
X40943532Y-78245701D01*
X41076782Y-77996408D01*
X41158836Y-77725909D01*
X41186543Y-77444600D01*
X41158836Y-77163291D01*
X41076782Y-76892792D01*
X40943532Y-76643499D01*
X40764208Y-76424992D01*
X40651118Y-76332181D01*
X40669082Y-76330412D01*
X40788780Y-76294102D01*
X40899094Y-76235137D01*
X40995785Y-76155785D01*
X41075137Y-76059094D01*
X41134102Y-75948780D01*
X41170412Y-75829082D01*
X41182672Y-75704600D01*
X41182672Y-75253639D01*
X52792696Y-75253639D01*
X52810233Y-75336418D01*
X52920885Y-75596246D01*
X53080100Y-75829495D01*
X53281761Y-76027201D01*
X53507159Y-76174600D01*
X53281761Y-76321999D01*
X53080100Y-76519705D01*
X52920885Y-76752954D01*
X52810233Y-77012782D01*
X52792696Y-77095561D01*
X52914685Y-77317600D01*
X54457600Y-77317600D01*
X54457600Y-75031600D01*
X54711600Y-75031600D01*
X54711600Y-77317600D01*
X56254515Y-77317600D01*
X56376504Y-77095561D01*
X56358967Y-77012782D01*
X56248315Y-76752954D01*
X56089100Y-76519705D01*
X55887439Y-76321999D01*
X55662041Y-76174600D01*
X55887439Y-76027201D01*
X56089100Y-75829495D01*
X56248315Y-75596246D01*
X56358967Y-75336418D01*
X56376504Y-75253639D01*
X56319565Y-75150000D01*
X58227328Y-75150000D01*
X58227328Y-76850000D01*
X58239588Y-76974482D01*
X58275898Y-77094180D01*
X58334863Y-77204494D01*
X58414215Y-77301185D01*
X58510906Y-77380537D01*
X58621220Y-77439502D01*
X58740918Y-77475812D01*
X58865400Y-77488072D01*
X60565400Y-77488072D01*
X60689882Y-77475812D01*
X60809580Y-77439502D01*
X60919894Y-77380537D01*
X61016585Y-77301185D01*
X61095937Y-77204494D01*
X61154902Y-77094180D01*
X61191212Y-76974482D01*
X61203472Y-76850000D01*
X61203472Y-75150000D01*
X61191212Y-75025518D01*
X61154902Y-74905820D01*
X61095937Y-74795506D01*
X61016585Y-74698815D01*
X60919894Y-74619463D01*
X60809580Y-74560498D01*
X60689882Y-74524188D01*
X60565400Y-74511928D01*
X58865400Y-74511928D01*
X58740918Y-74524188D01*
X58621220Y-74560498D01*
X58510906Y-74619463D01*
X58414215Y-74698815D01*
X58334863Y-74795506D01*
X58275898Y-74905820D01*
X58239588Y-75025518D01*
X58227328Y-75150000D01*
X56319565Y-75150000D01*
X56254515Y-75031600D01*
X54711600Y-75031600D01*
X54457600Y-75031600D01*
X52914685Y-75031600D01*
X52792696Y-75253639D01*
X41182672Y-75253639D01*
X41182672Y-74555561D01*
X52792696Y-74555561D01*
X52914685Y-74777600D01*
X54457600Y-74777600D01*
X54457600Y-73469600D01*
X54711600Y-73469600D01*
X54711600Y-74777600D01*
X56254515Y-74777600D01*
X56376504Y-74555561D01*
X56358967Y-74472782D01*
X56248315Y-74212954D01*
X56089100Y-73979705D01*
X55887439Y-73781999D01*
X55651083Y-73627434D01*
X55389114Y-73521950D01*
X55111600Y-73469600D01*
X54711600Y-73469600D01*
X54457600Y-73469600D01*
X54057600Y-73469600D01*
X53780086Y-73521950D01*
X53518117Y-73627434D01*
X53281761Y-73781999D01*
X53080100Y-73979705D01*
X52920885Y-74212954D01*
X52810233Y-74472782D01*
X52792696Y-74555561D01*
X41182672Y-74555561D01*
X41182672Y-74104600D01*
X41170412Y-73980118D01*
X41134102Y-73860420D01*
X41075137Y-73750106D01*
X40995785Y-73653415D01*
X40899094Y-73574063D01*
X40788780Y-73515098D01*
X40669082Y-73478788D01*
X40544600Y-73466528D01*
X38144600Y-73466528D01*
X38020118Y-73478788D01*
X37900420Y-73515098D01*
X37790106Y-73574063D01*
X37693415Y-73653415D01*
X37614063Y-73750106D01*
X37555098Y-73860420D01*
X37518788Y-73980118D01*
X37506528Y-74104600D01*
X37506528Y-75704600D01*
X37518788Y-75829082D01*
X37555098Y-75948780D01*
X37614063Y-76059094D01*
X37693415Y-76155785D01*
X37790106Y-76235137D01*
X37900420Y-76294102D01*
X38020118Y-76330412D01*
X38038082Y-76332181D01*
X37924992Y-76424992D01*
X37745668Y-76643499D01*
X37612418Y-76892792D01*
X37530364Y-77163291D01*
X37502657Y-77444600D01*
X37530364Y-77725909D01*
X37612418Y-77996408D01*
X37745668Y-78245701D01*
X37924992Y-78464208D01*
X38143499Y-78643532D01*
X38276458Y-78714600D01*
X38143499Y-78785668D01*
X37924992Y-78964992D01*
X37745668Y-79183499D01*
X37612418Y-79432792D01*
X37530364Y-79703291D01*
X37502657Y-79984600D01*
X37530364Y-80265909D01*
X37612418Y-80536408D01*
X37745668Y-80785701D01*
X37924992Y-81004208D01*
X38143499Y-81183532D01*
X38276458Y-81254600D01*
X38143499Y-81325668D01*
X37924992Y-81504992D01*
X37745668Y-81723499D01*
X37612418Y-81972792D01*
X37530364Y-82243291D01*
X37502657Y-82524600D01*
X37530364Y-82805909D01*
X37612418Y-83076408D01*
X37745668Y-83325701D01*
X37924992Y-83544208D01*
X38143499Y-83723532D01*
X38276458Y-83794600D01*
X38143499Y-83865668D01*
X37924992Y-84044992D01*
X37745668Y-84263499D01*
X37612418Y-84512792D01*
X37530364Y-84783291D01*
X37502657Y-85064600D01*
X37530364Y-85345909D01*
X37612418Y-85616408D01*
X37745668Y-85865701D01*
X37924992Y-86084208D01*
X38143499Y-86263532D01*
X38276458Y-86334600D01*
X38143499Y-86405668D01*
X37924992Y-86584992D01*
X37745668Y-86803499D01*
X37724768Y-86842600D01*
X37400822Y-86842600D01*
X37363399Y-86838914D01*
X37325976Y-86842600D01*
X37325974Y-86842600D01*
X37214022Y-86853626D01*
X37070385Y-86897198D01*
X36938008Y-86967955D01*
X36821978Y-87063178D01*
X36798121Y-87092248D01*
X34539649Y-89350721D01*
X34510579Y-89374578D01*
X34486722Y-89403648D01*
X34486721Y-89403649D01*
X34415355Y-89490608D01*
X34344599Y-89622985D01*
X34301027Y-89766622D01*
X34286314Y-89916000D01*
X34290001Y-89953433D01*
X34290000Y-108396369D01*
X29459649Y-113226721D01*
X29430579Y-113250578D01*
X29406722Y-113279648D01*
X29406721Y-113279649D01*
X29335355Y-113366608D01*
X29264599Y-113498985D01*
X29221027Y-113642622D01*
X29206314Y-113792000D01*
X29210001Y-113829433D01*
X29210001Y-114547157D01*
X29025368Y-114670525D01*
X28818525Y-114877368D01*
X28656010Y-115120589D01*
X28544068Y-115390842D01*
X28487000Y-115677740D01*
X20000852Y-115677740D01*
X20111990Y-115511411D01*
X20223932Y-115241158D01*
X20281000Y-114954260D01*
X20281000Y-114661740D01*
X20223932Y-114374842D01*
X20111990Y-114104589D01*
X19949475Y-113861368D01*
X19817620Y-113729513D01*
X19890180Y-113707502D01*
X20000494Y-113648537D01*
X20097185Y-113569185D01*
X20176537Y-113472494D01*
X20235502Y-113362180D01*
X20271812Y-113242482D01*
X20284072Y-113118000D01*
X20281000Y-112553750D01*
X20122250Y-112395000D01*
X18923000Y-112395000D01*
X18923000Y-112415000D01*
X18669000Y-112415000D01*
X18669000Y-112395000D01*
X17469750Y-112395000D01*
X17311000Y-112553750D01*
X17307928Y-113118000D01*
X16846200Y-113118000D01*
X16846200Y-111418000D01*
X17307928Y-111418000D01*
X17311000Y-111982250D01*
X17469750Y-112141000D01*
X18669000Y-112141000D01*
X18669000Y-110941750D01*
X18923000Y-110941750D01*
X18923000Y-112141000D01*
X20122250Y-112141000D01*
X20281000Y-111982250D01*
X20284072Y-111418000D01*
X20271812Y-111293518D01*
X20235502Y-111173820D01*
X20176537Y-111063506D01*
X20097185Y-110966815D01*
X20000494Y-110887463D01*
X19890180Y-110828498D01*
X19770482Y-110792188D01*
X19646000Y-110779928D01*
X19081750Y-110783000D01*
X18923000Y-110941750D01*
X18669000Y-110941750D01*
X18510250Y-110783000D01*
X17946000Y-110779928D01*
X17821518Y-110792188D01*
X17701820Y-110828498D01*
X17591506Y-110887463D01*
X17494815Y-110966815D01*
X17415463Y-111063506D01*
X17356498Y-111173820D01*
X17320188Y-111293518D01*
X17307928Y-111418000D01*
X16846200Y-111418000D01*
X16846200Y-100940890D01*
X17354524Y-100940890D01*
X17399175Y-101088099D01*
X17524359Y-101350920D01*
X17698412Y-101584269D01*
X17914645Y-101779178D01*
X18164748Y-101928157D01*
X18439109Y-102025481D01*
X18669000Y-101904814D01*
X18669000Y-100711000D01*
X18923000Y-100711000D01*
X18923000Y-101904814D01*
X19152891Y-102025481D01*
X19427252Y-101928157D01*
X19677355Y-101779178D01*
X19893588Y-101584269D01*
X20067641Y-101350920D01*
X20192825Y-101088099D01*
X20237476Y-100940890D01*
X20116155Y-100711000D01*
X18923000Y-100711000D01*
X18669000Y-100711000D01*
X17475845Y-100711000D01*
X17354524Y-100940890D01*
X16846200Y-100940890D01*
X16846200Y-97194000D01*
X17307928Y-97194000D01*
X17307928Y-98894000D01*
X17320188Y-99018482D01*
X17356498Y-99138180D01*
X17415463Y-99248494D01*
X17494815Y-99345185D01*
X17591506Y-99424537D01*
X17701820Y-99483502D01*
X17782466Y-99507966D01*
X17698412Y-99583731D01*
X17524359Y-99817080D01*
X17399175Y-100079901D01*
X17354524Y-100227110D01*
X17475845Y-100457000D01*
X18669000Y-100457000D01*
X18669000Y-100437000D01*
X18923000Y-100437000D01*
X18923000Y-100457000D01*
X20116155Y-100457000D01*
X20237476Y-100227110D01*
X20192825Y-100079901D01*
X20067641Y-99817080D01*
X19893588Y-99583731D01*
X19809534Y-99507966D01*
X19890180Y-99483502D01*
X20000494Y-99424537D01*
X20097185Y-99345185D01*
X20176537Y-99248494D01*
X20235502Y-99138180D01*
X20271812Y-99018482D01*
X20284072Y-98894000D01*
X20284072Y-97194000D01*
X20271812Y-97069518D01*
X20235502Y-96949820D01*
X20176537Y-96839506D01*
X20097185Y-96742815D01*
X20000494Y-96663463D01*
X19890180Y-96604498D01*
X19770482Y-96568188D01*
X19646000Y-96555928D01*
X17946000Y-96555928D01*
X17821518Y-96568188D01*
X17701820Y-96604498D01*
X17591506Y-96663463D01*
X17494815Y-96742815D01*
X17415463Y-96839506D01*
X17356498Y-96949820D01*
X17320188Y-97069518D01*
X17307928Y-97194000D01*
X16846200Y-97194000D01*
X16846200Y-93083413D01*
X26048192Y-93083413D01*
X26143956Y-93347814D01*
X26433571Y-93488704D01*
X26745108Y-93570384D01*
X27066595Y-93589718D01*
X27385675Y-93545961D01*
X27690088Y-93440795D01*
X27864044Y-93347814D01*
X27959808Y-93083413D01*
X27004000Y-92127605D01*
X26048192Y-93083413D01*
X16846200Y-93083413D01*
X16846200Y-91288816D01*
X17769000Y-91288816D01*
X17769000Y-91591184D01*
X17827989Y-91887743D01*
X17943701Y-92167095D01*
X18111688Y-92418505D01*
X18325495Y-92632312D01*
X18576905Y-92800299D01*
X18856257Y-92916011D01*
X19152816Y-92975000D01*
X19455184Y-92975000D01*
X19751743Y-92916011D01*
X20031095Y-92800299D01*
X20282505Y-92632312D01*
X20496312Y-92418505D01*
X20664299Y-92167095D01*
X20729123Y-92010595D01*
X25362282Y-92010595D01*
X25406039Y-92329675D01*
X25511205Y-92634088D01*
X25604186Y-92808044D01*
X25868587Y-92903808D01*
X26824395Y-91948000D01*
X27183605Y-91948000D01*
X28139413Y-92903808D01*
X28403814Y-92808044D01*
X28544704Y-92518429D01*
X28626384Y-92206892D01*
X28645718Y-91885405D01*
X28601961Y-91566325D01*
X28496795Y-91261912D01*
X28403814Y-91087956D01*
X28139413Y-90992192D01*
X27183605Y-91948000D01*
X26824395Y-91948000D01*
X25868587Y-90992192D01*
X25604186Y-91087956D01*
X25463296Y-91377571D01*
X25381616Y-91689108D01*
X25362282Y-92010595D01*
X20729123Y-92010595D01*
X20780011Y-91887743D01*
X20839000Y-91591184D01*
X20839000Y-91288816D01*
X20780011Y-90992257D01*
X20705589Y-90812587D01*
X26048192Y-90812587D01*
X27004000Y-91768395D01*
X27824395Y-90948000D01*
X30365928Y-90948000D01*
X30365928Y-92948000D01*
X30378188Y-93072482D01*
X30414498Y-93192180D01*
X30473463Y-93302494D01*
X30552815Y-93399185D01*
X30649506Y-93478537D01*
X30759820Y-93537502D01*
X30879518Y-93573812D01*
X31004000Y-93586072D01*
X33004000Y-93586072D01*
X33128482Y-93573812D01*
X33248180Y-93537502D01*
X33358494Y-93478537D01*
X33455185Y-93399185D01*
X33534537Y-93302494D01*
X33593502Y-93192180D01*
X33629812Y-93072482D01*
X33642072Y-92948000D01*
X33642072Y-90948000D01*
X33629812Y-90823518D01*
X33593502Y-90703820D01*
X33534537Y-90593506D01*
X33455185Y-90496815D01*
X33358494Y-90417463D01*
X33248180Y-90358498D01*
X33128482Y-90322188D01*
X33004000Y-90309928D01*
X31004000Y-90309928D01*
X30879518Y-90322188D01*
X30759820Y-90358498D01*
X30649506Y-90417463D01*
X30552815Y-90496815D01*
X30473463Y-90593506D01*
X30414498Y-90703820D01*
X30378188Y-90823518D01*
X30365928Y-90948000D01*
X27824395Y-90948000D01*
X27959808Y-90812587D01*
X27864044Y-90548186D01*
X27574429Y-90407296D01*
X27262892Y-90325616D01*
X26941405Y-90306282D01*
X26622325Y-90350039D01*
X26317912Y-90455205D01*
X26143956Y-90548186D01*
X26048192Y-90812587D01*
X20705589Y-90812587D01*
X20664299Y-90712905D01*
X20496312Y-90461495D01*
X20282505Y-90247688D01*
X20031095Y-90079701D01*
X19751743Y-89963989D01*
X19455184Y-89905000D01*
X19152816Y-89905000D01*
X18856257Y-89963989D01*
X18576905Y-90079701D01*
X18325495Y-90247688D01*
X18111688Y-90461495D01*
X17943701Y-90712905D01*
X17827989Y-90992257D01*
X17769000Y-91288816D01*
X16846200Y-91288816D01*
X16846200Y-82920000D01*
X17765928Y-82920000D01*
X17765928Y-84720000D01*
X17778188Y-84844482D01*
X17814498Y-84964180D01*
X17873463Y-85074494D01*
X17952815Y-85171185D01*
X18049506Y-85250537D01*
X18159820Y-85309502D01*
X18279518Y-85345812D01*
X18404000Y-85358072D01*
X20204000Y-85358072D01*
X20328482Y-85345812D01*
X20411258Y-85320702D01*
X28650903Y-85320702D01*
X28722486Y-85564671D01*
X28977996Y-85685571D01*
X29252184Y-85754300D01*
X29534512Y-85768217D01*
X29814130Y-85726787D01*
X30080292Y-85631603D01*
X30205514Y-85564671D01*
X30277097Y-85320702D01*
X29464000Y-84507605D01*
X28650903Y-85320702D01*
X20411258Y-85320702D01*
X20448180Y-85309502D01*
X20558494Y-85250537D01*
X20655185Y-85171185D01*
X20734537Y-85074494D01*
X20793502Y-84964180D01*
X20829812Y-84844482D01*
X20842072Y-84720000D01*
X20842072Y-84398512D01*
X28023783Y-84398512D01*
X28065213Y-84678130D01*
X28160397Y-84944292D01*
X28227329Y-85069514D01*
X28471298Y-85141097D01*
X29284395Y-84328000D01*
X29643605Y-84328000D01*
X30456702Y-85141097D01*
X30700671Y-85069514D01*
X30714324Y-85040659D01*
X30849363Y-85242759D01*
X31049241Y-85442637D01*
X31284273Y-85599680D01*
X31545426Y-85707853D01*
X31822665Y-85763000D01*
X32105335Y-85763000D01*
X32382574Y-85707853D01*
X32643727Y-85599680D01*
X32878759Y-85442637D01*
X33078637Y-85242759D01*
X33235680Y-85007727D01*
X33343853Y-84746574D01*
X33399000Y-84469335D01*
X33399000Y-84186665D01*
X33343853Y-83909426D01*
X33235680Y-83648273D01*
X33078637Y-83413241D01*
X32878759Y-83213363D01*
X32643727Y-83056320D01*
X32382574Y-82948147D01*
X32105335Y-82893000D01*
X31822665Y-82893000D01*
X31545426Y-82948147D01*
X31284273Y-83056320D01*
X31049241Y-83213363D01*
X30849363Y-83413241D01*
X30715308Y-83613869D01*
X30700671Y-83586486D01*
X30456702Y-83514903D01*
X29643605Y-84328000D01*
X29284395Y-84328000D01*
X28471298Y-83514903D01*
X28227329Y-83586486D01*
X28106429Y-83841996D01*
X28037700Y-84116184D01*
X28023783Y-84398512D01*
X20842072Y-84398512D01*
X20842072Y-83335298D01*
X28650903Y-83335298D01*
X29464000Y-84148395D01*
X30277097Y-83335298D01*
X30205514Y-83091329D01*
X29950004Y-82970429D01*
X29675816Y-82901700D01*
X29393488Y-82887783D01*
X29113870Y-82929213D01*
X28847708Y-83024397D01*
X28722486Y-83091329D01*
X28650903Y-83335298D01*
X20842072Y-83335298D01*
X20842072Y-82920000D01*
X20829812Y-82795518D01*
X20793502Y-82675820D01*
X20734537Y-82565506D01*
X20655185Y-82468815D01*
X20558494Y-82389463D01*
X20448180Y-82330498D01*
X20328482Y-82294188D01*
X20204000Y-82281928D01*
X18404000Y-82281928D01*
X18279518Y-82294188D01*
X18159820Y-82330498D01*
X18049506Y-82389463D01*
X17952815Y-82468815D01*
X17873463Y-82565506D01*
X17814498Y-82675820D01*
X17778188Y-82795518D01*
X17765928Y-82920000D01*
X16846200Y-82920000D01*
X16846200Y-76804495D01*
X20015000Y-76804495D01*
X20015000Y-77195505D01*
X20091282Y-77579003D01*
X20240915Y-77940250D01*
X20458149Y-78265364D01*
X20734636Y-78541851D01*
X21059750Y-78759085D01*
X21420997Y-78908718D01*
X21804495Y-78985000D01*
X22195505Y-78985000D01*
X22579003Y-78908718D01*
X22940250Y-78759085D01*
X23265364Y-78541851D01*
X23541851Y-78265364D01*
X23759085Y-77940250D01*
X23908718Y-77579003D01*
X23985000Y-77195505D01*
X23985000Y-76850000D01*
X26959928Y-76850000D01*
X26972188Y-76974482D01*
X27008498Y-77094180D01*
X27067463Y-77204494D01*
X27146815Y-77301185D01*
X27243506Y-77380537D01*
X27353820Y-77439502D01*
X27473518Y-77475812D01*
X27598000Y-77488072D01*
X28162250Y-77485000D01*
X28321000Y-77326250D01*
X28321000Y-76127000D01*
X27121750Y-76127000D01*
X26963000Y-76285750D01*
X26959928Y-76850000D01*
X23985000Y-76850000D01*
X23985000Y-76804495D01*
X23908718Y-76420997D01*
X23759085Y-76059750D01*
X23541851Y-75734636D01*
X23265364Y-75458149D01*
X22940250Y-75240915D01*
X22720762Y-75150000D01*
X26959928Y-75150000D01*
X26963000Y-75714250D01*
X27121750Y-75873000D01*
X28321000Y-75873000D01*
X28321000Y-74673750D01*
X28575000Y-74673750D01*
X28575000Y-75873000D01*
X28595000Y-75873000D01*
X28595000Y-76127000D01*
X28575000Y-76127000D01*
X28575000Y-77326250D01*
X28733750Y-77485000D01*
X29298000Y-77488072D01*
X29422482Y-77475812D01*
X29542180Y-77439502D01*
X29652494Y-77380537D01*
X29749185Y-77301185D01*
X29828537Y-77204494D01*
X29887502Y-77094180D01*
X29909513Y-77021620D01*
X30041368Y-77153475D01*
X30284589Y-77315990D01*
X30554842Y-77427932D01*
X30841740Y-77485000D01*
X31134260Y-77485000D01*
X31421158Y-77427932D01*
X31691411Y-77315990D01*
X31934632Y-77153475D01*
X32141475Y-76946632D01*
X32258000Y-76772240D01*
X32374525Y-76946632D01*
X32581368Y-77153475D01*
X32824589Y-77315990D01*
X33094842Y-77427932D01*
X33381740Y-77485000D01*
X33674260Y-77485000D01*
X33961158Y-77427932D01*
X34231411Y-77315990D01*
X34474632Y-77153475D01*
X34681475Y-76946632D01*
X34843990Y-76703411D01*
X34955932Y-76433158D01*
X35013000Y-76146260D01*
X35013000Y-75853740D01*
X34955932Y-75566842D01*
X34843990Y-75296589D01*
X34681475Y-75053368D01*
X34474632Y-74846525D01*
X34231411Y-74684010D01*
X33961158Y-74572068D01*
X33674260Y-74515000D01*
X33381740Y-74515000D01*
X33094842Y-74572068D01*
X32824589Y-74684010D01*
X32581368Y-74846525D01*
X32374525Y-75053368D01*
X32258000Y-75227760D01*
X32141475Y-75053368D01*
X31934632Y-74846525D01*
X31691411Y-74684010D01*
X31421158Y-74572068D01*
X31134260Y-74515000D01*
X30841740Y-74515000D01*
X30554842Y-74572068D01*
X30284589Y-74684010D01*
X30041368Y-74846525D01*
X29909513Y-74978380D01*
X29887502Y-74905820D01*
X29828537Y-74795506D01*
X29749185Y-74698815D01*
X29652494Y-74619463D01*
X29542180Y-74560498D01*
X29422482Y-74524188D01*
X29298000Y-74511928D01*
X28733750Y-74515000D01*
X28575000Y-74673750D01*
X28321000Y-74673750D01*
X28162250Y-74515000D01*
X27598000Y-74511928D01*
X27473518Y-74524188D01*
X27353820Y-74560498D01*
X27243506Y-74619463D01*
X27146815Y-74698815D01*
X27067463Y-74795506D01*
X27008498Y-74905820D01*
X26972188Y-75025518D01*
X26959928Y-75150000D01*
X22720762Y-75150000D01*
X22579003Y-75091282D01*
X22195505Y-75015000D01*
X21804495Y-75015000D01*
X21420997Y-75091282D01*
X21059750Y-75240915D01*
X20734636Y-75458149D01*
X20458149Y-75734636D01*
X20240915Y-76059750D01*
X20091282Y-76420997D01*
X20015000Y-76804495D01*
X16846200Y-76804495D01*
X16846200Y-72634600D01*
X67567787Y-72634600D01*
X67643247Y-73398814D01*
%TD*%
M02*
