M48
; DRILL file {KiCad (5.1.6)-1} date 08/29/20 18:27:24
; FORMAT={-:-/ absolute / inch / decimal}
; #@! TF.CreationDate,2020-08-29T18:27:24+02:00
; #@! TF.GenerationSoftware,Kicad,Pcbnew,(5.1.6)-1
FMAT,2
INCH
T1C0.0315
T2C0.0354
T3C0.0394
T4C0.1063
%
G90
G05
T1
X1.549Y-2.949
X1.549Y-3.049
X1.549Y-3.149
X1.549Y-3.249
X1.549Y-3.349
X1.549Y-3.449
X1.549Y-3.549
X1.549Y-3.649
X1.549Y-3.749
X1.549Y-3.849
X1.549Y-3.949
X1.549Y-4.049
X1.549Y-4.149
X1.549Y-4.249
X1.549Y-4.349
X1.549Y-4.449
X1.549Y-4.549
X1.549Y-4.649
X1.549Y-4.749
X1.549Y-4.849
X2.149Y-2.949
X2.149Y-3.049
X2.149Y-3.149
X2.149Y-3.249
X2.149Y-3.349
X2.149Y-3.449
X2.149Y-3.549
X2.149Y-3.649
X2.149Y-3.749
X2.149Y-3.849
X2.149Y-3.949
X2.149Y-4.049
X2.149Y-4.149
X2.149Y-4.249
X2.149Y-4.349
X2.149Y-4.449
X2.149Y-4.549
X2.149Y-4.649
X2.149Y-4.749
X2.149Y-4.849
X2.34Y-3.64
X2.34Y-3.94
X2.6Y-4.66
X2.6Y-4.7387
X2.6Y-3.86
X2.6Y-4.16
X2.7Y-3.86
X2.7Y-4.16
X2.8Y-3.86
X2.8Y-4.16
X1.14Y-4.7613
X1.14Y-4.84
X1.16Y-3.32
X1.2584Y-3.32
X2.52Y-3.2
X2.52Y-3.5
X2.38Y-4.6616
X2.38Y-4.76
X1.34Y-4.7416
X1.34Y-4.84
T2
X2.34Y-3.2
X2.34Y-3.5
X0.76Y-3.3
X0.76Y-3.6
X2.52Y-3.66
X2.82Y-3.66
T3
X0.74Y-4.42
X0.74Y-4.52
X1.0631Y-3.62
X1.26Y-3.62
X1.18Y-4.56
X1.28Y-4.56
X1.12Y-2.9921
X1.22Y-2.9921
X1.32Y-2.9921
X2.351Y-2.9921
X0.74Y-3.86
X0.74Y-3.96
T4
X0.8661Y-3.0315
X2.7953Y-4.4488
X0.8661Y-4.8031
X2.7953Y-3.3465
T0
M30
